<mxfile host="Electron" agent="Mozilla/5.0 (Windows NT 10.0; Win64; x64) AppleWebKit/537.36 (KHTML, like Gecko) draw.io/25.0.1 Chrome/128.0.6613.186 Electron/32.2.6 Safari/537.36" version="25.0.1">
  <diagram name="Page-1" id="IbyBZU0BSHPzoFBdNU0U">
    <mxGraphModel dx="1185" dy="478" grid="1" gridSize="10" guides="1" tooltips="1" connect="1" arrows="1" fold="1" page="1" pageScale="1" pageWidth="827" pageHeight="1169" math="0" shadow="0">
      <root>
        <mxCell id="0" />
        <mxCell id="1" parent="0" />
        <mxCell id="GoDRWv_CjvwXQ1oCSgpp-32" value="&#xa;&lt;div&gt;&lt;span data-canva-clipboard=&quot;ewAiAGEAIgA6ADUALAAiAGgAIgA6ACIAdwB3AHcALgBjAGEAbgB2AGEALgBjAG8AbQAiACwAIgBjACIAOgAiAEQAQQBHAGEAZABzAHIASQAxAEsAbwAiACwAIgBpACIAOgAiAGMAVQBhADQAcwBvAEIAdABEAHAAXwByAEIATgByAGkAQQBkAFIAVgB5AGcAIgAsACIAYgAiADoAMQA3ADMANQAyADgAMgA0ADcAMQA5ADAAMwAsACIAagAiADoAWwB7ACIAQQAiADoAewAiAEsAIgA6AHsAfQAsACIARAAiADoAewB9ACwAIgBFACIAOgB7AH0ALAAiAEYAIgA6AHsAIgBBACIAOgAiAEkAZABlAG4AdABpAHQAeQAuAHAAbgBnACIALAAiAEIAIgA6ADEAfQAsACIARwAiADoAewB9ACwAIgBIACIAOgB7ACIAQgAiADoAIgBuAG8AbgBlACIALAAiAEMAIgA6ACIAIwAwADAAMAAwADAAMAAiACwAIgBEACIAOgAiACMAZgBmAGYAZgBmAGYAIgB9ACwAIgBKACIAOgB7ACIARgAiADoAIgAjADAAMAAwADAAMAAwACIAfQAsACIAUAAiADoAewB9AH0AfQBdACwAIgBBAD8AIgA6ACIAQgAiACwAIgBBACIAOgBbAHsAIgBBACIAOgAtADIAOQA4AC4ANgAsACIAQgAiADoAMgA4ADMALgAwADgANAAzADYAMwA2ADMANgAzADYAMwA2ACwAIgBEACIAOgAyADcAOQAuADgAMwAxADIANwAyADcAMgA3ADIANwAyADgALAAiAEMAIgA6ADMAMAA3AC4AMgAwADAAMAAwADAAMAAwADAAMAAwADAAMAA1ACwAIgBBAD8AIgA6ACIASQAiACwAIgBhACIAOgB7ACIAQQAiADoAZgBhAGwAcwBlACwAIgBCACIAOgB7ACIAQQAiADoAewAiAEEAIgA6ACIATQBBAEQAcAB1AG8AawBjADYAWQAwACIALAAiAEIAIgA6ADEAfQAsACIAQgAiADoAewAiAEQAIgA6ADIANwA5AC4AOAAzADEAMgA3ADIANwAyADcAMgA3ADIAOAAsACIAQwAiADoAMwAwADcALgAyADAAMAAwADAAMAAwADAAMAAwADAAMAAwADUAfQB9AH0AfQBdACwAIgBCACIAOgAtADEALAAiAEMAIgA6AC0AMQB9AA==&quot;&gt;&lt;/span&gt;&lt;/div&gt;&#xa;&#xa;" style="rounded=0;whiteSpace=wrap;html=1;fillColor=#f5f5f5;gradientColor=#b3b3b3;strokeColor=#666666;" vertex="1" parent="1">
          <mxGeometry x="60" y="320" width="650" height="440" as="geometry" />
        </mxCell>
        <mxCell id="GoDRWv_CjvwXQ1oCSgpp-3" value="&lt;font style=&quot;font-size: 20px;&quot;&gt;&lt;b style=&quot;&quot;&gt;&lt;i style=&quot;&quot;&gt;Saturday and Sunday Recap Class Agenda&amp;nbsp;&lt;/i&gt;&lt;/b&gt;&lt;/font&gt;" style="rounded=1;whiteSpace=wrap;html=1;fillColor=#dae8fc;strokeColor=#6c8ebf;gradientColor=#7ea6e0;" vertex="1" parent="1">
          <mxGeometry x="140" y="340" width="500" height="60" as="geometry" />
        </mxCell>
        <mxCell id="GoDRWv_CjvwXQ1oCSgpp-34" value="" style="shape=image;verticalLabelPosition=bottom;labelBackgroundColor=default;verticalAlign=top;aspect=fixed;imageAspect=0;image=data:image/jpeg,/9j/4AAQSkZJRgABAQEAYABgAAD/2wBDAAMCAgMCAgMDAwMEAwMEBQgFBQQEBQoHBwYIDAoMDAsKCwsNDhIQDQ4RDgsLEBYQERMUFRUVDA8XGBYUGBIUFRT/2wBDAQMEBAUEBQkFBQkUDQsNFBQUFBQUFBQUFBQUFBQUFBQUFBQUFBQUFBQUFBQUFBQUFBQUFBQUFBQUFBQUFBQUFBT/wAARCADKA9cDASIAAhEBAxEB/8QAHwAAAQUBAQEBAQEAAAAAAAAAAAECAwQFBgcICQoL/8QAtRAAAgEDAwIEAwUFBAQAAAF9AQIDAAQRBRIhMUEGE1FhByJxFDKBkaEII0KxwRVS0fAkM2JyggkKFhcYGRolJicoKSo0NTY3ODk6Q0RFRkdISUpTVFVWV1hZWmNkZWZnaGlqc3R1dnd4eXqDhIWGh4iJipKTlJWWl5iZmqKjpKWmp6ipqrKztLW2t7i5usLDxMXGx8jJytLT1NXW19jZ2uHi4+Tl5ufo6erx8vP09fb3+Pn6/8QAHwEAAwEBAQEBAQEBAQAAAAAAAAECAwQFBgcICQoL/8QAtREAAgECBAQDBAcFBAQAAQJ3AAECAxEEBSExBhJBUQdhcRMiMoEIFEKRobHBCSMzUvAVYnLRChYkNOEl8RcYGRomJygpKjU2Nzg5OkNERUZHSElKU1RVVldYWVpjZGVmZ2hpanN0dXZ3eHl6goOEhYaHiImKkpOUlZaXmJmaoqOkpaanqKmqsrO0tba3uLm6wsPExcbHyMnK0tPU1dbX2Nna4uPk5ebn6Onq8vP09fb3+Pn6/9oADAMBAAIRAxEAPwD9U6ajrIMqwYZxkHNOqG2tIbOMpBGsaFixC+p6mgCamo6yDKsGGcZBzTqhtrSGzjKQRrGhYsQvqepoAmpqOsgyrBhnGQc06oba0hs4ykEaxoWLEL6nqaAJqajrIMqwYZxkHNOqG2tIbOMpBGsaFixC+p6mgCamo6yDKsGGcZBzTqhtrSGzjKQRrGhYsQvqepoAmpqOsgyrBhnGQc06oba0hs4ykEaxoWLEL6nqaAJqajrIMqwYZxkHNOqG2tIbOMpBGsaFixC+p6mgCamo6yDKsGGcZBzTqhtrSGzjKQRrGhYsQvqepoAmpqOsgyrBhnGQc06oba0hs4ykEaxoWLEL6nqaAJqajrIMqwYZxkHNOqG2tIbOMpBGsaFixC+p6mgCamo6yDKsGGcZBzTqhtrSGzjKQRrGhYsQvqepoAmpqOsgyrBhnGQc06oba0hs4ykEaxoWLEL6nqaAJqajrIMqwYZxkHNOqG2tIbOMpBGsaFixC+p6mgCamo6yDKsGGcZBzTqhtrSGzjKQRrGhYsQvqepoAmpqOsgyrBhnGQc06oba0hs4ykEaxoWLEL6nqaAJqajrIMqwYZxkHNOqG2tIbOMpBGsaFixC+p6mgCamo6yDKsGGcZBzTqhtrSGzjKQRrGhYsQvqepoAmpqOsgyrBhnGQc06oba0hs4ykEaxoWLEL6nqaAJqajrIMqwYZxkHNOqG2tIbOMpBGsaFixC+p6mgCamo6yDKsGGcZBzTqhtrSGzjKQRrGhYsQvqepoAmpqOsgyrBhnGQc06oba0hs4ykEaxoWLEL6nqaAJqajrIMqwYZxkHNOqG2tIbOMpBGsaFixC+p6mgCamo6yDKsGGcZBzTqhtrSGzjKQRrGhYsQvqepoAmpqOsgyrBhnGQc06oba0hs4ykEaxoWLEL6nqaAJqajrIMqwYZxkHNOqG2tIbOMpBGsaFixC+p6mgCamo6yDKsGGcZBzTqhtrSGzjKQRrGhYsQvqepoAmpqOsgyrBhnGQc06oba0hs4ykEaxoWLEL6nqaAJqajrIMqwYZxkHNOqG2tIbOMpBGsaFixC+p6mgCamo6yDKsGGcZBzTqhtrSGzjKQRrGhYsQvqepoAmpqOsgyrBhnGQc06oba0hs4ykEaxoWLEL6nqaAJqajrIMqwYZxkHNOqG2tIbOMpBGsaFixC+p6mgCamo6yDKsGGcZBzTqhtrSGzjKQRrGhYsQvqepoAmpqOsgyrBhnGQc06oba0hs4ykEaxoWLEL6nqaAJqajrIMqwYZxkHNOqG2tIbOMpBGsaFixC+p6mgCamo6yDKsGGcZBzTqhtrSGzjKQRrGhYsQvqepoAmpqOsgyrBhnGQc06oba0hs4ykEaxoWLEL6nqaAJqajrIMqwYZxkHNOqG2tIbOMpBGsaFixC+p6mgCamo6yDKsGGcZBzTqhtrSGzjKQRrGhYsQvqepoAmpqOsgyrBhnGQc06oba0hs4ykEaxoWLEL6nqaAJqajrIMqwYZxkHNOqG2tIbOMpBGsaFixC+p6mgCamo6yDKsGGcZBzTqhtrSGzjKQRrGhYsQvqepoAmpqOsgyrBhnGQc06oba0hs4ykEaxoWLEL6nqaAJqajrIMqwYZxkHNOqG2tIbOMpBGsaFixC+p6mgCamo6yDKsGGcZBzTqhtrSGzjKQRrGhYsQvqepoAmpqOsgyrBhnGQc06oba0hs4ykEaxoWLEL6nqaAJqajrIMqwYZxkHNOqG2tIbOMpBGsaFixC+p6mgCamo6yDKsGGcZBzTqhtrSGzjKQRrGhYsQvqepoAmpqOsgyrBhnGQc06oba0hs4ykEaxoWLEL6nqaAJqajrIMqwYZxkHNOqG2tIbOMpBGsaFixC+p6mgCamo6yDKsGGcZBzTqhtrSGzjKQRrGhYsQvqepoAmpqOsgyrBhnGQc06oba0hs4ykEaxoWLEL6nqaAJqajrIMqwYZxkHNOqG2tIbOMpBGsaFixC+p6mgCamo6yDKsGGcZBzTqhtrSGzjKQRrGhYsQvqepoAmpqOsgyrBhnGQc06oba0hs4ykEaxoWLEL6nqaAJqajrIMqwYZxkHNOqG2tIbOMpBGsaFixC+p6mgCamo6yDKsGGcZBzTqhtrSGzjKQRrGhYsQvqepoAmpqOsgyrBhnGQc06oba0hs4ykEaxoWLEL6nqaAJqajrIMqwYZxkHNOqG2tIbOMpBGsaFixC+p6mgCamo6yDKsGGcZBzTqhtrSGzjKQRrGhYsQvqepoAmpqOsgyrBhnGQc06oba0hs4ykEaxoWLEL6nqaAJqajrIMqwYZxkHNOqG2tIbOMpBGsaFixC+p6mgCaiiigApqOsgyrBhnGQc06oba0hs4ykEaxoWLEL6nqaAJqajrIMqwYZxkHNOqG2tIbOMpBGsaFixC+p6mgCamo6yDKsGGcZBzTqhtrSGzjKQRrGhYsQvqepoAmpqOsgyrBhnGQc06oba0hs4ykEaxoWLEL6nqaAJqajrIMqwYZxkHNOqG2tIbOMpBGsaFixC+p6mgCamo6yDKsGGcZBzTqhtrSGzjKQRrGhYsQvqepoAmpqOsgyrBhnGQc06oba0hs4ykEaxoWLEL6nqaAJqajrIMqwYZxkHNOqG2tIbOMpBGsaFixC+p6mgCamo6yDKsGGcZBzTqhtrSGzjKQRrGhYsQvqepoAmpqOsgyrBhnGQc06oba0hs4ykEaxoWLEL6nqaAJqajrIMqwYZxkHNOqG2tIbOMpBGsaFixC+p6mgCamo6yDKsGGcZBzTqhtrSGzjKQRrGhYsQvqepoAmpqOsgyrBhnGQc06oba0hs4ykEaxoWLEL6nqaAJqajrIMqwYZxkHNOqG2tIbOMpBGsaFixC+p6mgCamo6yDKsGGcZBzTqhtrSGzjKQRrGhYsQvqepoAmpqOsgyrBhnGQc06oba0hs4ykEaxoWLEL6nqaAJqajrIMqwYZxkHNOqG2tIbOMpBGsaFixC+p6mgCamo6yDKsGGcZBzTqhtrSGzjKQRrGhYsQvqepoAmpqOsgyrBhnGQc06oba0hs4ykEaxoWLEL6nqaAJqajrIMqwYZxkHNOqG2tIbOMpBGsaFixC+p6mgCamo6yDKsGGcZBzTqhtrSGzjKQRrGhYsQvqepoAmpqOsgyrBhnGQc06oba0hs4ykEaxoWLEL6nqaAJqajrIMqwYZxkHNOqG2tIbOMpBGsaFixC+p6mgCamo6yDKsGGcZBzTqhtrSGzjKQRrGhYsQvqepoAmpqOsgyrBhnGQc06oba0hs4ykEaxoWLEL6nqaAJqajrIMqwYZxkHNOqG2tIbOMpBGsaFixC+p6mgCamo6yDKsGGcZBzTqhtrSGzjKQRrGhYsQvqepoAmpqOsgyrBhnGQc06oba0hs4ykEaxoWLEL6nqaAJqajrIMqwYZxkHNOqG2tIbOMpBGsaFixC+p6mgCamo6yDKsGGcZBzTqhtrSGzjKQRrGhYsQvqepoAmpqOsgyrBhnGQc06oba0hs4ykEaxoWLEL6nqaAJqajrIMqwYZxkHNOqG2tIbOMpBGsaFixC+p6mgCamo6yDKsGGcZBzTqhtrSGzjKQRrGhYsQvqepoAmpqOsgyrBhnGQc06oba0hs4ykEaxoWLEL6nqaAJqajrIMqwYZxkHNOqG2tIbOMpBGsaFixC+p6mgCamo6yDKsGGcZBzTqhtrSGzjKQRrGhYsQvqepoAmpqOsgyrBhnGQc06oba0hs4ykEaxoWLEL6nqaAJqajrIMqwYZxkHNOqG2tIbOMpBGsaFixC+p6mgCamo6yDKsGGcZBzTqhtrSGzjKQRrGhYsQvqepoAmpqOsgyrBhnGQc06oba0hs4ykEaxoWLEL6nqaAJqajrIMqwYZxkHNOqG2tIbOMpBGsaFixC+p6mgCamo6yDKsGGcZBzTqhtrSGzjKQRrGhYsQvqepoAmpqOsgyrBhnGQc06oba0hs4ykEaxoWLEL6nqaAJqajrIMqwYZxkHNOqG2tIbOMpBGsaFixC+p6mgCamo6yDKsGGcZBzTqhtrSGzjKQRrGhYsQvqepoAmpqOsgyrBhnGQc06oba0hs4ykEaxoWLEL6nqaAJqajrIMqwYZxkHNOqG2tIbOMpBGsaFixC+p6mgCamo6yDKsGGcZBzTqhtrSGzjKQRrGhYsQvqepoAmpqOsgyrBhnGQc06oba0hs4ykEaxoWLEL6nqaAJqajrIMqwYZxkHNOqG2tIbOMpBGsaFixC+p6mgCamo6yDKsGGcZBzTqhtrSGzjKQRrGhYsQvqepoAmpqOsgyrBhnGQc06oba0hs4ykEaxoWLEL6nqaAJqajrIMqwYZxkHNOqG2tIbOMpBGsaFixC+p6mgCamo6yDKsGGcZBzTqhtrSGzjKQRrGhYsQvqepoAmpqOsgyrBhnGQc06oba0hs4ykEaxoWLEL6nqaAJqajrIMqwYZxkHNOqG2tIbOMpBGsaFixC+p6mgCamo6yDKsGGcZBzTqhtrSGzjKQRrGhYsQvqepoAmpqOsgyrBhnGQc06oba0hs4ykEaxoWLEL6nqaAJqajrIMqwYZxkHNOqG2tIbOMpBGsaFixC+p6mgCamo6yDKsGGcZBzTqhtrSGzjKQRrGhYsQvqepoAmpqOsgyrBhnGQc06oba0hs4ykEaxoWLEL6nqaAJqKKKACmo6yDKsGGcZBzTqhtrSGzjKQRrGhYsQvqepoAmpqOsgyrBhnGQc06oba0hs4ykEaxoWLEL6nqaAJqajrIMqwYZxkHNOqG2tIbOMpBGsaFixC+p6mgCamo6yDKsGGcZBzTqhtrSGzjKQRrGhYsQvqepoAmpqOsgyrBhnGQc06oba0hs4ykEaxoWLEL6nqaAJqajrIMqwYZxkHNOqG2tIbOMpBGsaFixC+p6mgCamo6yDKsGGcZBzTqhtrSGzjKQRrGhYsQvqepoAmpqOsgyrBhnGQc06oba0hs4ykEaxoWLEL6nqaAJqajrIMqwYZxkHNOqG2tIbOMpBGsaFixC+p6mgCamo6yDKsGGcZBzTqhtrSGzjKQRrGhYsQvqepoAmpqOsgyrBhnGQc06oba0hs4ykEaxoWLEL6nqaAJqajrIMqwYZxkHNOqG2tIbOMpBGsaFixC+p6mgCamo6yDKsGGcZBzTqhtrSGzjKQRrGhYsQvqepoAmpqOsgyrBhnGQc06oba0hs4ykEaxoWLEL6nqaAJqajrIMqwYZxkHNOqG2tIbOMpBGsaFixC+p6mgCamo6yDKsGGcZBzTqhtrSGzjKQRrGhYsQvqepoAmpqOsgyrBhnGQc06oba0hs4ykEaxoWLEL6nqaAJqajrIMqwYZxkHNOqG2tIbOMpBGsaFixC+p6mgCamo6yDKsGGcZBzTqhtrSGzjKQRrGhYsQvqepoAmpqOsgyrBhnGQc06oba0hs4ykEaxoWLEL6nqaAJqajrIMqwYZxkHNOqG2tIbOMpBGsaFixC+p6mgCamo6yDKsGGcZBzTqhtrSGzjKQRrGhYsQvqepoAmpqOsgyrBhnGQc06oba0hs4ykEaxoWLEL6nqaAJqajrIMqwYZxkHNOqG2tIbOMpBGsaFixC+p6mgCamo6yDKsGGcZBzTqhtrSGzjKQRrGhYsQvqepoAmpqOsgyrBhnGQc06oba0hs4ykEaxoWLEL6nqaAJqajrIMqwYZxkHNOqG2tIbOMpBGsaFixC+p6mgCamo6yDKsGGcZBzTqhtrSGzjKQRrGhYsQvqepoAmpqOsgyrBhnGQc06oba0hs4ykEaxoWLEL6nqaAJqajrIMqwYZxkHNOqG2tIbOMpBGsaFixC+p6mgCamo6yDKsGGcZBzTqhtrSGzjKQRrGhYsQvqepoAmpqOsgyrBhnGQc06oba0hs4ykEaxoWLEL6nqaAJqajrIMqwYZxkHNOqG2tIbOMpBGsaFixC+p6mgCamo6yDKsGGcZBzTqhtrSGzjKQRrGhYsQvqepoAmpqOsgyrBhnGQc06oba0hs4ykEaxoWLEL6nqaAJqajrIMqwYZxkHNOqG2tIbOMpBGsaFixC+p6mgCamo6yDKsGGcZBzTqhtrSGzjKQRrGhYsQvqepoAmpqOsgyrBhnGQc06oba0hs4ykEaxoWLEL6nqaAJqajrIMqwYZxkHNOqG2tIbOMpBGsaFixC+p6mgCamo6yDKsGGcZBzTqhtrSGzjKQRrGhYsQvqepoAmpqOsgyrBhnGQc06oba0hs4ykEaxoWLEL6nqaAJqajrIMqwYZxkHNOqG2tIbOMpBGsaFixC+p6mgCamo6yDKsGGcZBzTqhtrSGzjKQRrGhYsQvqepoAmpqOsgyrBhnGQc06oba0hs4ykEaxoWLEL6nqaAJqajrIMqwYZxkHNOqG2tIbOMpBGsaFixC+p6mgCamo6yDKsGGcZBzTqhtrSGzjKQRrGhYsQvqepoAmpqOsgyrBhnGQc06oba0hs4ykEaxoWLEL6nqaAJqajrIMqwYZxkHNOqG2tIbOMpBGsaFixC+p6mgCamo6yDKsGGcZBzTqhtrSGzjKQRrGhYsQvqepoAmpqOsgyrBhnGQc06oba0hs4ykEaxoWLEL6nqaAJqajrIMqwYZxkHNOqG2tIbOMpBGsaFixC+p6mgCamo6yDKsGGcZBzTqhtrSGzjKQRrGhYsQvqepoAmpqOsgyrBhnGQc06oba0hs4ykEaxoWLEL6nqaAJqajrIMqwYZxkHNOqG2tIbOMpBGsaFixC+p6mgCamo6yDKsGGcZBzTqhtrSGzjKQRrGhYsQvqepoAmpqOsgyrBhnGQc06oba0hs4ykEaxoWLEL6nqaAJqajrIMqwYZxkHNOqG2tIbOMpBGsaFixC+p6mgCamo6yDKsGGcZBzTqhtrSGzjKQRrGhYsQvqepoAmpqOsgyrBhnGQc06oba0hs4ykEaxoWLEL6nqaAJqajrIMqwYZxkHNOqG2tIbOMpBGsaFixC+p6mgCamo6yDKsGGcZBzTqhtrSGzjKQRrGhYsQvqepoAmooooAKajrIMqwYZxkHNOqG2tIbOMpBGsaFixC+p6mgCamo6yDKsGGcZBzTqhtrSGzjKQRrGhYsQvqepoAmpqOsgyrBhnGQc06oba0hs4ykEaxoWLEL6nqaAJqajrIMqwYZxkHNOqG2tIbOMpBGsaFixC+p6mgCamo6yDKsGGcZBzTqhtrSGzjKQRrGhYsQvqepoAmpqOsgyrBhnGQc06oba0hs4ykEaxoWLEL6nqaAJqajrIMqwYZxkHNOrwj4j/tlfBn4M3txpWpeKbebVIWYy6dpET3ciPn5lYoCiNnqrMD7VtSo1Kz5acW35K5E5xgrydj3emo6yDKsGGcZBzXxq3/AAVX+EIn8saL4wZP+eosbbb/AOlGf0r0v4WftufBP4iXUOm6T4ph0bULhiUsdYhazLMT0DsPLLEngByT6V1Ty/F0480qbt6GMcTRk7KSPoGmo6yDKsGGcZBzSg5GRyKrrHa6VaysPLtbdN0rsx2qvdmJPT1rzzpLNNR1kGVYMM4yDmvnLx9/wUG+CXgK6ntD4nk8Q3kJw8Og2zXK59pflib8HNef6b/wVL+DUUhgTQ/FtnCXJMjWFvsyTyfluCffpXowy7FzjzRpP7jmeJoxdnJH2fTUdZBlWDDOMg5ryT4U/tY/Cr40XiWPhjxdazaq4+XTbxHtbljjOESQL5hHfZuxXq9taQ2cZSGNYkLFiF9T1NcdSlOlLlqRafnobRlGavF3RNTUdZBlWDDOMg5rw3xf+2/8FPAXifU/D2u+NPsOsabO1vdW39lXsnlyL1G5ISp+oJFeh/Cn4keEfit4STxB4J1BdT0OWeSNbhbeWDMin5/llVW698Vc8PWpw55waT6tOwlUhJ8sZJv1OxpqOsgyrBhnGQc06oba0hs4ykEaxoWLEL6nqa5zQmpqOsgyrBhnGQc06oba0hs4ykEaxoWLEL6nqaAJqajrIMqwYZxkHNDusaM7sERRksxwAPWvnTx5+3f8EPhbNPYDxKutXkTFntfD8DXQ3Hr+9GIs56jfmt6VCrXfLSi2/JGc6kaavN2Po2mo6yDKsGGcZBzXx3Y/8FUPg9d3Yhl03xZZRk4+0T6fAUHvhJ2b9K92+EH7Q3ww+MCPB4I8UWGoXI3SPp5DW9yO7N5MgVyOeWAI963q4LE0I81Sm0vQiFelUdoyTPUKajrIMqwYZxkHNYXj3xnZfDvwXrfifUop5rDSLSS9njtVVpWRFLEKGIBOBxkj618Uan/wVg8D6XEyaB4B1y6BJbbeXENqCTyfumTvmjD4LEYpN0YXsFSvTo/G7H3tTUdZBlWDDOMg5r43/Z9/4KS6F8afiPYeD9U8IT+FbnUnMNjdDUBdxyS4JCP+7jKZxgY3ckDjrX2JbWkNnGUgjWNCxYhfU9TWeIwtbCS5K0bP+uxVOrCsuaDuiamo6yDKsGGcZBzTqhtrSGzjKQRrGhYsQvqeprlNSamo6yDKsGGcZBzTqhtrSGzjKQRrGhYsQvqepoAmpqOsgyrBhnGQc06oba0hs4ykEaxoWLEL6nqaAJqajrIMqwYZxkHNOqG2tIbOMpBGsaFixC+p6mgCamo6yDKsGGcZBzTqhtrSGzjKQRrGhYsQvqepoAmpqOsgyrBhnGQc06vnP46ftr/D/wDZn8YReFdd0bxBdXs1qt+H0i2gki2uzDkvMh3ZU9sdOa3o0KmIlyUo3ZnOcaa5puyPoymo6yDKsGGcZBzXjP7On7V3hL9psa4fC+na1Yf2QYRP/a8EMe7zN+3Z5cr5+4c5x2r2K2tIbOMpBGsaFixC+p6mpq0p0ZunUVmhwnGa5ou6JqajrIMqwYZxkHNcP8Wvjf4K+Bmj2WqeN9a/sSxvJ/s0Ev2We43ybS23ESORwCckYryi2/4KBfs82cZSDx0I0LFiF0bUOp6n/UVrTwterHmp0215JsmVWnB2lJL5n0jTUdZBlWDDOMg5r51/4eGfs/f9D9/5RtQ/+R6itv8AgoF+zzZxlIPHQjQsWIXRtQ6nqf8AUVp9Rxf/AD6l/wCAv/Ij6xR/nX3o+kaajrIMqwYZxkHNfOv/AA8M/Z+/6H7/AMo2of8AyPXv2iy2V1pdtd6dtNldILiJlUrvVxuDYPIyDnmsKuHq0be1g437pr8zSNSE/gkmXqajrIMqwYZxkHNOqG2tIbOMpBGsaFixC+p6msDQmpqOsgyrBhnGQc18yfH39vvwV+z/AOO7vwhqmga9qmr20MUzPZpCLciRQwAZpA2cHn5a8MP/AAVr0qwmEVh8LJzaF9zO+trG3PU7RAwJ6969WlleMrRU4U9H6fqzkni6MHyylqfohTUdZBlWDDOMg5rkfhH8UtG+M/w90fxhoJlGnalGXWOcASRMGKujgEjKsCODjiuqtrSGzjKQRrGhYsQvqeprzZRcJOMlZo6k1JJrYmpqOsgyrBhnGQc06oba0hs4ykEaxoWLEL6nqagZNTUdZBlWDDOMg5p1Q21pDZxlII1jQsWIX1PU0ATU1HWQZVgwzjIOadUNtaQ2cZSCNY0LFiF9T1NAE1NR1kGVYMM4yDmnVDbWkNnGUgjWNCxYhfU9TQBNTUdZBlWDDOMg5p1Q21pDZxlII1jQsWIX1PU0ATU1HWQZVgwzjIOadUNtaQ2cZSCNY0LFiF9T1NAE1NR1kGVYMM4yDmnVDbWkNnGUgjWNCxYhfU9TQBNTUdZBlWDDOMg5p1Q21pDZxlII1jQsWIX1PU0ATU1HWQZVgwzjIOadUNtaQ2cZSCNY0LFiF9T1NAE1NR1kGVYMM4yDmnVDbWkNnGUgjWNCxYhfU9TQBNTUdZBlWDDOMg5p1fH3iX/gpd8KPAHibWfDs3h3xabnTL2a1na1s7UxtIjlWZSbkEgkHGQPpXTQw1bEtqjG7RlUqwpazdj7BpqOsgyrBhnGQc1xvwd+K+kfG34eaX4y0K3vbXTNREhih1BESZdkjIdwRmUcqejHjFddbWkNnGUgjWNCxYhfU9TWM4OEnGSs0WmpJNbE1NR1kGVYMM4yDmuE+Lfx18D/AAK02wv/ABxrf9iWl9KYLeT7JPcb3A3EYiRyOO5wK8rtv+CgX7PNnGUg8dCNCxYhdG1Dqep/1Fb08LiKseanTk15JsiVWnB2lJL5n0jTUdZBlWDDOMg5r54i/wCCg/wAmfavj9Qf9vSL9R+Zgrv/AIe/H74WePZY7Lwp410K/up2LJYxXapcOTySInIc/lRPC4imrzpyXqmKNanJ2jJP5npVNR1kGVYMM4yDmnVDbWkNnGUgjWNCxYhfU9TXKbE1NR1kGVYMM4yDmnVDbWkNnGUgjWNCxYhfU9TQBNTUdZBlWDDOMg5p1Q21pDZxlII1jQsWIX1PU0ATU1HWQZVgwzjIOadUNtaQ2cZSCNY0LFiF9T1NAE1NR1kGVYMM4yDmnVDbWkNnGUgjWNCxYhfU9TQBNTUdZBlWDDOMg5rP8Q+JNJ8JaRPquuanaaPpluMy3l9OsMUY92YgCvmXxN/wUf8AgZ4Kle107UNT8QYdi/8AY2ntsDZ5+aYxhvqpIrpo4atiP4UG/RGU6sKfxux9WU1HWQZVgwzjIOa+S/DX/BT34K67dLFeyeIPDyH/AJbalpoZB/34eU/pX0f8PfHPhP4gaCNT8Hazp+taY7ZMunzLIFc8kOByrc8qwBHpVVsJXw6vVg18hQrU6nwSTOnpqOsgyrBhnGQc06oba0hs4ykEaxoWLEL6nqa5DYmpqOsgyrBhnGQc06oba0hs4ykEaxoWLEL6nqaAJqajrIMqwYZxkHNOqG2tIbOMpBGsaFixC+p6mgCamo6yDKsGGcZBzTqhtrSGzjKQRrGhYsQvqepoAmpqOsgyrBhnGQc06oba0hs4ykEaxoWLEL6nqaAJqajrIMqwYZxkHNOqG2tIbOMpBGsaFixC+p6mgCamo6yDKsGGcZBzTqhtrSGzjKQRrGhYsQvqepoAmpqOsgyrBhnGQc06oba0hs4ykEaxoWLEL6nqaAJqajrIMqwYZxkHNOqG2tIbOMpBGsaFixC+p6mgCaiiigApqOsgyrBhnGQc06oba0hs4ykEaxoWLEL6nqaAJqajrIMqwYZxkHNOqG2tIbOMpBGsaFixC+p6mgCamo6yDKsGGcZBzTqhtrSGzjKQRrGhYsQvqepoAmpqOsgyrBhnGQc06oba0hs4ykEaxoWLEL6nqaAJqajrIMqwYZxkHNOqG2tIbOMpBGsaFixC+p6mgCamo6yDKsGGcZBzTqhtrSGzjKQRrGhYsQvqepoA+W/+CjHxo1b4S/A6O00G6ksdV8Q3f9n/AGuFiskMOxmlKkdGIAXPUBjjmvyd8A+Adf8Aij4ssvDnhuwfU9YvWIigVgvABLMzMQAAASSTX6wf8FGvg9qnxV+Bq3Wi2r3up+H7saiLaJd0ksOxllCgdSAQ2O+31r8rPhT8Ute+DHjvTvFnhyWKLVLFm2rcR74pEYFXR14ypBIOCD6EHmv0PI7fUZextz3e/fpfyPm8f/HXP8P9XPo6H/gl98XJbQTNqXhaJyM+Q97cbx7ZEBX9a+fPi18EvGPwR1uLTPFuktYSThmt7iORZYLhQcEo6kg44yDgjIyBmv0O+E3/AAVQ8EeIEgtPHuhXnhS9OFe+sgbyz6csQAJUyf4Qr/WvUPi58Lfh1+2v8NbKx8M+LrGW0s71b4XukFLiSJirAo6EgoWDZIbB4HFYRzPHYWqljoWh3t+qNHhaFaH7iWp4L/wTN/ad1bW9Rm+FXiW9kv44rZrnRbm4ctJGqY32+T1UL8y+gVh0wBY/4Kn/ABs1XR7Pw98O9IvHtbHU4Xv9TaB8GdA+yOIkfw5DkjuQtd18Df8AgnZp/wAFvijofjKz8Z6hez6ZI7C2ks0RZQ0bIVJDEjhv0rz/AP4Kk/BO/vrDw94+0exaay02OSy1JYUyYkZ96Sn/AGdxcE9ty1yU6mCq5rCpS+F+Vve17/1c2lGvDCSjPdfkfDvwc+B3i/47+I5dG8I6et3PBGJbmeaURQ26E4DOx9T0ABJ5wODXvl1/wTE+LcFi9xDqPha9dQSLe3vp97H0BaBVz9WFeN/s7ftHeJv2bfF0+teH47W9gvI1hvtPvVJjuIwcjkEFWGThh0ycgjiv0P8AhD/wUt+E/iuKKy8RWd54Cv5Dl/tCG5sy5PaaMbvcl0UD1r2cxr5jRnzYeCcPS7+f/AOHDU8NONqjsz8v/G3gXxL8J/Fk2ieItPudC1yzZX8t2AYd1dHUkMPRlJHHWv1S/wCCef7S+pfG/wCH2oaB4luTeeJvDnlo15I2ZLu2cERu57uCpUnv8pPJNXf2hP2WPB/7ZEvh/wAUaT4whS3s4JLdL7RvKu47hSwIBcNj5Tu4/wBo1Y/Zc/Yos/2aPGWpa9ZeKbzWPt1ibOS2ntkjXG9XDZBPI2/rXjY7MMNjcHy1dKq6Wej/AOCd1DDVaFa8NYH5oftc/wDJzPxJ/wCw1P8A+hV+kP8AwTKP/GL1gP8AqJ3n/oYr83v2uP8Ak5n4k/8AYan/APQq/SD/AIJlAD9l+xIHXU7wn/vsV25v/wAiyn/27+Rhg/8AepfP8z6xpqOsgyrBhnGQc06oba0hs4ykEaxoWLEL6nqa+BPoSamLKjKWDqVHUg8Cn14z+1j41b4Ufs4eOdY00i0u/sbQW7IcFZZ2EQYe435/CtaVN1akacd20vvInJQi5Pofn3+3T+2bq3xW8U6n4I8KajJZeBtPla3ne1cqdUkU4ZnYdYgQQq9Djcc8Y8J+Dn7N3xA+O88n/CJ6G9zYwv5c2pXLiG1ib0Lt94jIJVQx5HFcT4P8N3HjLxbo2g2p/wBJ1O8hs4z6NI4UH9a/ej4YfDbRfhb4K0rw3odoltp9hCsSKo5Y4+Z29WY5JPck1+gY3FQyahCjh4rmf9XfmfO0KUsdUc6j0/rQ/LLW/wDgmV8YNJ017q3l8O6tKoyLOzvpFlb2BliRPzYV81arpPiP4YeLntb2G+8OeItMmBxloZ4JByGVhyPUMDz1Br+g4xqRggV8e/t3fsjXfxq0LRNS8FaZaf8ACUWNwY5DJIsIltnBLBmPXa+CP95vWvPwOeznVVPFW5X12t6+R04jL4xjzUr3Rh/sy/Hy+/bD+AnjH4ba/fx23jiLS5LRtQdMi6gkUos5QY+ZSQGA65U/xcfMXx9/YFv/AIDfCm/8aXfjO31f7JPFAbKDTzGG3yBM+YZDjGc429q9S/ZB/ZE+MPwR+PGg+JdS02yg0VVlttQMWoRuxhdCPug84YIfwr6B/wCCj1pDZ/soa+kEaxIb6zYhfU3C5NSsQsLj40sHNezm02lZ76NeQOm6uHc60feimfmb+y3/AMnGfDj/ALDlr/6MFfuzG6yLlWDDpkHNfhN+y3/ycZ8OP+w5a/8AowV+61raQ2cWyGNYkJLEL6nqaz4j/jU/T9S8s/hy9Samo6yDKsGGcZBzXwh+1v8A8FGn+HfiC/8ABnw1gtb7WLNzBfa5dL5kNvIOGjhTo7KerNlQQRtbt8M6z+1f8YtcuHmm+JHiK0Z2LlNMvnsY8k5JCQbFH5Vx4XIsTiIKpJqKffc2q4+lTlyrU/demo6yDKsGGcZBzX4peAP27vjX8P7yKSPxnda/aqwZ7PXwLxJR6F2/eAf7riv0q/ZP/aw8OftGeE70Wdmug+J9OXzL/SN+8fN/y2ib+JCfUZU8HsTz43KMRgo+0lZx7r9TShjKdd8q0Z9C01HWQZVgwzjIOa/GvW/+Cgfx8tNav4IfHuyKK4kRF/sewOFDEAcwV+pf7NfiO/8AGPwI8Ea7q0y3Oq6npkN3dzrGkfmyuuWbagCjJ7AAVnjMsrYGEalRpp9r/wCSKoYqFeTjFPQ9LpqOsgyrBhnGQc1U1m5ez0i9niO2SOB3U4zghSRX4zr+3/8AHqweWK38dCKPzGO1dG0/qTz/AMsKnA5bVx/N7Jpctt79fkyq+Jhh7c6ep+0tNR1kGVYMM4yDmvmL4h/tdR/BX9l/wZ4y1rZrnjHXtLtmtLRtsQubloVeSVwgAVFJydoHUAYzkfmx4w/bH+MXjHUJrlvHeraJE8jOlnoNw1hDHk5wBEVJ+rFj6k104TJ6+LvJNJJ2u+tuxlWxtOjZbs/cavyU/wCCpDrJ+0VYFWDD+wrcZBz/AMtZq5j4Nf8ABQb4r/DPW7Q6zrtx400AOBc6frDCWVlzyUnI8xWA6ZJX1Brof+CiP2Dxl4h8BfErw8wm8MeJdFAtnC4KSRyMzo/ow8wAj1Delezl+X1cvx0fa2aknZr8jixGJhiaD5d1Y9Z/4JG/81J+th/7Xr9FkdZBlWDDOMg5r86f+CRv/NSfrYf+16/RK2tIbOMpBGsaFixC+p6mvDzr/fqny/JHdgf93j8/zPlH/gon8F/GXxs+HfhnTfBejf21e2eqm5ni+0wwbI/Jdd2ZXUHkgYBzXwKn7BXx2kGV8Dbh0yNXsD/7Xr9rGQN1Gagt9OtrOMpDCkaFixCjuepqsJnFfB0lRpxTS73/AMxVsFTrT55N/wBfI/n78feANe+GHiq88OeJrD+zNatNnn23nRy7Nyhl+aNmU5DA8Guu+F37NHxJ+NGi3OreDfDZ1nT7ac20swvraDbIFDbcSyKTww5AxzXd/wDBQQBf2sPGYAwMWn/pNFX2J/wSijV/gr4nyAf+J63/AKIir7PFY+rRwEcVFLmaXpr8zxKWHjUxDpN6K58Zj9gX48E4/wCEEP8A4N7D/wCP1+x3gOzm07wVoVncKEubaxgglQMG2usaqwyCQcEHpXj37WX7VuhfsxeGbdmtE1jxVqKt/Z2lb9q4HBllI5VAfTljwMckfmJ40/bb+MvjK5lYeM7zw/aNI0iWXh//AEGOPPUBkw7D/fZj714DpY3PIRnNRjFXs9dfzPR56GAk4xbbZ+3VNR1kGVYMM4yDmvw98IftnfGvwXeLcWfxE1q+xjdFq8/29GHoRPvxn1GD71+if7F37a+l/H9ZPDGtWFt4f8aQI04htSRbX69XeIMSVYdShJ45BIyF83GZNiMJB1NJRXbodNHHU60uXZnJ/tPfsBap8fvjJfeMIfF1vo1pdQQQ/Z2sGndfLQLnPmKDnFfmp8TPBZ+HPxB8Q+F2vBqB0i9lszdCPyxLsYjdtycZx0ya/oHYcGvwi/agjWL9on4jIgCqNcusAf8AXQ17mQ4ytWk6M37sUraI4MwowglOK1bP06/4JsH/AIxT0H/r9vf/AEe1fUSOsgyrBhnGQc18u/8ABNj/AJNU0H/r9vf/AEe1ej/tD/tBeGP2YPALa3qcJubu5kaPT9Jt2CyXk3U887VHVmwcccEkA/MYynOtjqlOCu3J/merRkoUIyk9LI9dpqOsgyrBhnGQc1+MPxM/4KAfGb4i307QeJ5PCunO2Y7DQFFv5Y7fvuZSfXL49hXD+G/2rfjD4Tu1uNP+JHiIuGL+XeX73URJ6kxyllP4ivXjw7iHG8ppPtqcbzKmnZJ2P3YpqOsgyrBhnGQc18Dfsmf8FIJ/HHiHT/BvxOhtbXUb11gsvEFqoiillPCpPH0UseA64XJA2jrX1B+0H8f/AAt+zF4BfXNViM9xcSNHYaVbsFkvJiMkAn7qjqzYOB2JIB8WtgMRQrKhKPvPa3U7oYinUh7RPRHrdNR1kGVYMM4yDmvxo+J3/BQj4y/ES+uPsfiE+EdLc/u7DQkEJQdszEGUnHUhgPQCvO9E/aj+L3h66FxZfEnxMGDmTZPqcs8ZY9SY5Cyn8RXtQ4dxDjeU0n21OF5lTTskz93aajrIMqwYZxkHNfm9+zN/wU21aTXLLw98Wlt7myuXWJPEltEsLwMTgGeNQEKdPmQLt6kHt+jdjDbRW6m0CCGT94DGcq2ecj614eLwVbBT5Ky32fRnfRrwrrmgyxTUdZBlWDDOMg5p1eV/H746eGv2Z/hzceI9VhMzPIYrLTbdgsl5cMCdoJ6Dglm5wB0JwDyU6cqslCCu2bSkoJylseqU1HWQZVgwzjIOa/GX4m/8FBPjL8RL64Nr4kbwnpjn93YaCggKDt++5lJ9fmA9AK4Lw9+1V8YPC92txYfEjxHvDl9l1fvcxEnk5jlLKfxFfTx4dxDjeU0n21PKeZU07JOx+7NNR1kGVYMM4yDmvgj9kD/goreeP/Eun+CfiYlpDqd6wgsNft0EKTynhY5kHyqzHgMuBnA2jrX05+1B4u1X4Vfs9+NPEPha5XStYsLYT21wsKSeW5lQFtrhlPDHqDXi1sBWoV1h6is3a3bU7oYiFSm6kdkeu01HWQZVgwzjIOa/IP4aft0/tA+L/iJ4Z0T/AITVr1dQ1K3tnt10iwUyK0ihlyIARwTyCMV7N+2V+3xrPgvxZqHgD4WzwaUdPkaPU9cSNZZGn/jihDAqu05DNgndnGMZPfLJMTGrGjdNvXS9kvPQ51j6Tg562R+jFNR1kGVYMM4yDmvwr079rD4y6Xqq6hD8TfE7zht4S51KSeHP/XJyyEe23FfoZ+wh+2fJ8cPtHgzxXBbWni+1ia5gurZBHHqMY++SnRZBnJC8EEkAYIp4zJa+EpurdSS3sKjjqdaXJazPsqmo6yDKsGGcZBzXxr+3F+3Jc/Aq8TwX4JS3n8XywiW7vrhRJHpyMPkATo0pHzYbgDBIOcV+d91+1L8X7u/e7PxJ8TW8jOZDHZ6lJbw7j1/dRlU/DFGEyTEYqmqt1FPa/UK2Op0Zclrs/dp/umvwN+O5B+Nnj4jkf27ff+j3r64/ZP8A+Ci3im18X6d4X+J+oJreiahKttDrMsaR3Fk7YCmQqAHjz1LDcM5yQMV8yftVeDbrwL+0L470y6HL6nLdxMBgPFMfNQj8HA/A172UYOpgcTOlV3auvPU8/GVo4ilGUOjP1K/4J8/8mn+Cvpdf+lMtfRaOsgyrBhnGQc186f8ABPj/AJNP8FfS6/8ASmWvoe2tIbOMpBGsaFixC+p6mvjsd/vVX/E/zPaw/wDCh6L8j4Q/4K1n/i3ngT/sKzf+ia/Oz4dfDbxH8WPFEPh3wrp39q6zNG8kdt58cOVQZY7pGVeB71+iX/BWv/knvgX/ALCs3/omvmj/AIJuAN+1VoYIyPsN5/6JNfbZbVlQyp1Y7rmf5nhYqCqYvkfWxzzfsE/HdFLHwG2B6arYk/8Ao+vK/Hvwq8YfCy9S38VeHr/Q5HYiKS4iPlyEddkgyr4/2ScV+/3kJ/dFec/Gz4N6J8UvhZ4g8L3dlEYry3kaFiuTDcYJSVfQhsH8x0NeZQ4iq86VaC5fK/8AmzrqZbDlfI3fzPgf9hP9uHXNA8V6Z8PvHuqzat4f1GRbXTtSvZC81jMThEZyctExwvOdpIxgZFfqAkiyDKMGHTIOa/nakWbTb5lyYri3kIypwVZT2/EV+zt5+1F4d+E37LfhX4ia8plutV023kt9OgO2S9u3iDMoz0GQxZuw9TgEzvL0qsKlCOs9LLuLAYh8ko1Hoj6KpqOsgyrBhnGQc1+MvxQ/4KCfGT4jX9wbTxG/hHS3b91YaCohMY7Zm/1pPr8wHoB0rhvDP7WPxi8I3gudO+I/iAuGL+Xe3jXcRJ5JMc29T+IrGPDuIcbykk+2po8ypp2Sdj91aajrIMqwYZxkHNfDf7Hv/BQ1/ipr9n4J+IkFrYeILrEdhrFqPLhvJMcRyJ0SQ9ivyseMKcZ8b/ao/al+OXwH+OfibwtpHjM2WhiYXmnRf2RYtiCUblG5oCW2ksuSSTt5rz4ZRiJ13h3ZSSvrs15WTOiWMpKmqi1R+pVNR1kGVYMM4yDmvmr9gn9oLWfj78Iru58UagupeKNKv3trucQxwmSNgHiYpGqqOCV4A+5X0ckVvpdtIUVIIV3SP2A7kmvMr0JYerKjPdHXTmqkVOOzLNYHjfxxpHw98Hav4n1m6WDSdLt3uLiUcnCj7oHdicADuSBX5P8AxJ/4KJfGS48f+IX8MeMRpvh37dMNPtRpdlJ5cAchPmeFmPAB5J616B+1N8TvGSfsW/DbTvFeqte6/wCMbt9UvpBbxW+bdf3kceyJVXHzxN0zkc17ayStCdNVZL33sr32u+nRHA8dCUZOCeh84ftI/tM+Kv2j/GE2o6vcyWuhwSN/ZuixufItU6AkfxSEfec8noMDAG78I/2IPir8Y9Ig1fTdKttH0e4XdBfa1OYFmHqqKrSEHs23B7E1B+xR8JLP4x/tBaDpOpwi40iyV9SvIWHyyJFjah9i5QEdxmv2s03SbXSrYQWsCQxg52oMDNe9mWY/2Yo4bDRSdvu/4J5+Fw31q9Wqz8d/iB/wTv8AjB4C0iXUY7DTvE0MSl5I9CuXllVQOojkRGf6IGPtXjvwm+L/AIs+BXjSDxB4X1CXTr+Btk9u+fKuEB+aKZP4lPoeQeQQQDX75SQpIpBUV+TH/BS/4N6f8Ovi3pviHSbZbSz8S27yzxxjC/ao2AkYDtuDIT75Pes8szWWOm8NiYp3X3+TKxWEWHj7Wk9j9JfgB8atJ+P3wv0rxfpS+QbhTFd2ZbLWtwvEkZPfB5B7gg969ER1kGVYMM4yDmvzO/4JPfEC4s/F3jLwbLKTZ3dmmqQxE8LLGwjcj6q65/3BXjuuft6fHbRfEWrWOn+Nxb20V7MkcSaNYHA8wgDmDJryJ5LUqYqpRotJRs9b7P5M7Y46MaUZzWr7eR+ytNR1kGVYMM4yDmvhH4/ftt+LPgN8JvBnht5rfVfi3qmkxXmqX9xboI7HeM7jEgCmQnIC42jbkg5APwrqP7VPxg1K+e6f4k+JLaRnLmOw1CS0iyev7uIqn6VGFyOviY8/Mkunn5+g6uPp0ny2bZ+7VNR1kGVYMM4yDmvy2/Ze/wCCj3i3w94n0/QfidfjxD4bupFg/taaNVu7EnADsygeYgP3twLdw3GD9b/thftVWv7L/gbTjoNjbaj4k1xnOnwzZNvGgwXnfaQWHzKAARknrgVx1sqxNGvGg1dy2ts/+GNoYulOm6l9FufSlNR1kGVYMM4yDmvw48W/tjfGnxnetc3vxG12zJPEWk3JsI1HoFg2D88n3qLwb+178ZPAt0J9N+IetzfNuMOpXBvo2ycnKzbxz6jmvW/1cr8t+dX+f9fgcn9p07/C7H7nU1HWQZVgwzjIOa+W/wBiz9tCL9pKzvND1+0t9L8aadEJpEtciC8hyAZI1JJUgkBlyeoIODgfUFtaQ2cZSCNY0LFiF9T1NfNYjD1MNUdKqrNHp06kasVOD0JqajrIMqwYZxkHNOqG2tIbOMpBGsaFixC+p6muc1JqajrIMqwYZxkHNOqG2tIbOMpBGsaFixC+p6mgCamo6yDKsGGcZBzTqhtrSGzjKQRrGhYsQvqepoAmpqOsgyrBhnGQc06oba0hs4ykEaxoWLEL6nqaAJqKKKACmo6yDKsGGcZBzTqhtrSGzjKQRrGhYsQvqepoAmpqOsgyrBhnGQc06oba0hs4ykEaxoWLEL6nqaAJqajrIMqwYZxkHNOqG2tIbOMpBGsaFixC+p6mgCamo6yDKsGGcZBzTqhtrSGzjKQRrGhYsQvqepoAmpqOsgyrBhnGQc06oba0hs4ykEaxoWLEL6nqaAJqajrIMqwYZxkHNOqG2tIbOMpBGsaFixC+p6mgDG13xt4Z0K5+xav4g0rTLkqH8i9vYon2nodrMDjg818t/F79iH4SftD3Woa14U1e00jX2bdcXvh+eK4geRv4poVbbk4JypQk5JJr50/4Ks+D7nT/AIu+GvEnlt9j1LSvsgkxx5kMjEr/AN8yKfzrn/8AgnL+0X4e+C3jrXNE8WXyaVoviGOIR6hMcQwXEZbb5h/hVg5G48AgZwOR9Zh8vq0sIsbhaj5rbJeeq8/uPHqYiE63sK0Vbuc58U/+CeXxZ+HfnXGnWEHjHTU3MJdHcmcKOm6BsMWPom/614Bper+Jfhn4nFzYXWp+F/EFi5UvE8lrcwt3U9GHuDX7+6TrekeKLGO80rUbPVbOUbkuLKdJo2HqGUkGvlj9vjw38KE+DGtSeI5dKtPE0MDyaLtdBfm4zwsYHzlC33h93GScYBHVgs7q1ZqhiIc19NN/mv8AhjKvgIRi6lOVrHFfsVf8FALr4la1ZeAviO0K6/cfu9O1uJBGt4/aKVR8qyHsygBumAcbvsHXfHfghxd6ZqniXQEYbobi0ur+AEdmR0ZvwIIr8FfCNxeWnivRZ9PZlv472F7cp94SBwVx75xXs/7c3gy58HftK+KvPhMUWqNHqUJxgMsiDcR/wMOPwrfFZLQqYpRhLk5k3Zd01t95nSx1SNJuSvZn2P8AFX/gnH8O/inFPr3w312Lw/LKzHZYut5pzuOoChsxnP8AdbA7LXxv8Tv2H/i38MfNnk8PHxHpsfW+8PsbtffMYAlGO5KYHrX0x/wTX/ae8JeEvB9/8O/Fms2ug3K3r3mm3WoSiKCZXA3x+Y2FVgy5AJGd3HIr9CdPi024sw9i0EttITIHgYMrZ5yCPWuCeYY3K6rozfNFbXW69f8Ahzojh6GLgpx0fkfgf8Pfij4w+D/iAap4U12+8P6jGwEggchZMH7ssZ+Vxn+FgR7V+rH7GH7atr+0bZzeHtft4dK8c2UPmvHBkQX0Q4MkYOSrDI3Jk9cg4yF8Y/4KdaR8L08M2V9b3GmL8SPtcaCOxdDcyW+Dv88LztGF2luc8DjNfJ37FV1f2n7Ufw9bTywlbUNkm3vEY2EmfbZur1q9OjmuCeJlDlkk9fTz6o5Kcp4SuqSldP8AX9TP/a4/5OZ+JP8A2Gp//Qq/SH/gmV/ya9Y/9hO8/wDQxX5u/tcc/tMfEn/sNT/zr9Hf+CZ08MH7L9hvkSMtqd4fmYDPziss2/5FlP8A7d/IvB/71L5/mfWtNR1kGVYMM4yDms648T6NaSmKfVrGGUdUkuUUj8CazdJ8beEZb5dL07xDo0t7JIwFnb30TSs/JICBsk9a+D5JNXsfQXR0tfMf/BRa1k1H9lHxQbZt4hntJZNhz8ouEz/OvpyuI+K/w2sfiL8LvEvhF0WCDVrOaDcBwkjDKv8Ag2D+Fb4WoqNeFR9Gn+JnVi505RXVH4nfs46jBpPx8+Ht3csqwR67Z72Y4ABlUZ/Wv3lidZEBRgw6ZBzX89niHQdV8B+Kr7SNRhksNY0q6aGVDw0ciN1H4jIP0Nfrh+yP+2f4K+Lfg3TdJ1nVbLw943gQRXVjeyrCt5J0MsDMQH39SgO4HPGME/YcQYadVQxFNXSWtvwZ4uXVYwcqctGfU1Z2r+INJ0Ky+16pqVnp1pv8vz7udIo9393cxAzwePam654m0fwzpkmpaxqtlpWnxrue7vbhIYlHqWYgV+Vf/BQD9qvQvjFe6d4L8Dy/aPC2lXD3dzfopWO9uiCoKA8lFBb5j94sSOACfmMBgamOqqC0XV9j1cRiI0Icz37H6h6d8RPCGq3sNpYeJ9FvLuZtscFvqEMkjn0Chsk/Svn3/gpK6yfsp68VYMPttkMg5/5brXw7/wAE9fC+nr8Zf+E78RajZaH4Y8KwtLNqep3CW9utzMDFDGZHIUE7nOM/wj1r6t/b5+Lnw58T/sy63pHhjxt4Z1nUJb21kWx0vV7e4mfE6szBEck4GSeK9T6h9TzClTptySau7ba/5HJ9Y9thpykraM/P79lv/k4z4cf9hy1/9GCv2U/aG8eTfDr4F+NvEtjKq3lhpczW8gI+WYrtQ/gzCvxg/Zw1Wy0L49eAdQ1K8t9PsLbWbaWe6upViiiQOCWZmICgepNfqh+0R8RPht8SvgN408JeGfHvhPUtY1LT5fsen2Ot20s1xOP3ioiK5ZmZlAAA5Jr0s6pueLotq8dL+lzlwMuWjOz1/wCAfjpY2dzr2r29rGTNeXs6xKWOS7u2Bn6k1+yHwc/Yb+FngDwlZ2l54X0vxNqhiX7ZqOsWyXbSy4+YqrgqgznAUDjGcnmvxx0PVZNB1zT9SiUNLZXEdwinuyMGA/Sv3c+Cfxh8G/GDwZZ6v4T1O0uEljEtxZRyr59rIwyySx5ypBz14PUZBzW3EE68IQ9m2o63t+FyMujTlKXNufFP/BQD9jvwh4K+HkvxA8G6VFoNxYzxpf2VmNtvLE7BA6x9EZWK/dwCCcjNfKX7Hvjy7+H37RXg68t5THDe3Y025XOA8U/7sg/QlW+qivun/gpV8f8Awxp3wkuvh9p+q2upeJdWuIRcWlrKsjWkMbiQtJjO0kqoCnBOSegr4G/ZV8JXPjX9obwJp1sjPt1OK6lKjO2OI+YxP4JW2XSqVMtm8Ttrv2t/w5GJUY4qPsvLbuec+I/+Rh1T/r6l/wDQzX7e/shMG/Zl+G2CDjRLYHH+4K/E3x1pk2i+NvEGn3KlLi11C4gkUjGGWRgf5V+vf7AXxS8OeNP2efDGj2GoWo1vRbf7HfacJAJ4yhIVymc7WXBDdOo6g1ln8XLCwlHZP9C8uaVaSfY+hPErBPDupsxAUW0hJPb5TX89FwQ08hByCxwR9a/ab9rv9oXRfhp8OtW8Pabex6p481yBtN0rQ7FhLdNLMNgcxrkqBuJGRyQAOTX4xaxo1/4e1S603VLOfT9QtXMU9rcxlJInHVWU8g+xqOHaUoQnOWnNa3y/4ceZTUpRiuh7Z+1l4xuNevfhvozSE2mieDdLijjzwHkgWR2+pDIP+AivTf8Agnx+yx4f+Oeo674j8XWzahoukSR28FhvZI552G4lypBKqNvy55Lc5HB8k/al8OT6PrvgW/kQiDVfB2k3ET9jtt1iYfgU/Wvon/gmF8ffDHgK48SeCfEuqW2itqk8d7p91eSCKGSQLseIueAxAQqCecEDnAPdiXUhljeG3t0331MKSjLFWq7f1Y+1tV/ZF+EWraXJYy/Drw3HE67S9tpsUEo+kkYVwfcHNflP+158LZvgb8U7rwTZate3vhWNF1DS7W4uGkSBJN25QM43Bg4yBkjGea/avVvEWlaDpUup6nqdnp+mxLve8up1jhVfUuxAA/Gvxb/bX+LeifGP48apqnhorLoNlClha3CrgXGwsXkGexd2x6gA14mQVK9Su1Jtxt12v/md+YRpxpqysz6d/wCCRv8AzUn62H/tev0WR1kGVYMM4yDmvzp/4JG/81J+th/7Xr9Era0hs4ykEaxoWLEL6nqa8rOv9+qfL8kdWB/3ePz/ADJqarrIpKsGHTIOadUNvaQ2cZSCNY0LFiF9T1NeId5+MX/BQX/k7Hxn9LT/ANJoq+xP+CUJ/wCLKeKP+w63/oiKvjv/AIKC/wDJ2PjP6Wn/AKTRV9if8Eof+SJ+KP8AsOv/AOiIq++x/wDyJ6fpE+ew3++y+Z8V/tz+OLrxz+0940lnkZ4NNuBpdsh6JHCNpA+r72/4FXof7L37QXwB+C/gy3XxP4H1nX/GckjSXWpjTLS5RPmOxYTLOCoC4zhQSc5zxXnH7cPg658GftO+Nop42SLULoalbsRw8cyhsj6NuH/Aa+i/2J/2e/gV8fvhhCNY0lLvxvp7yJqVudUuYpXXeTHKI1lA2FSoyBjINdleVCGXU3UUuSy+H067afqYU1UliZKNubXcwfj5+1L+zj8ZPBGrWEPw/wBesPEbwMbDVk0myhkhnA+TdIlxuKZwCvIx2zivk34NeMbz4f8AxX8JeIbGRoriw1OCXKkjcm8B1PsVLA+xr9OPiH+xP+zl8LfB+p+JvEXh/wCwaXYRNLI76xdhnIHCIDMNzseAvcmvlOy+Jv7IFreQTQ/Cvxp50bq6YvGPzA5HH231rDBYqg6MqeHpzlHzs/1NK9KopqVSUU/68j9bUcSRBh0IyK/CX9qMhv2i/iOQcj+3Lrkf9dDX7JQftFfDG2tIY9R8e+GNDvxEpm0zUtbtYrm1cqCYpUMnyuucEdiK/GL9ozUrDWPjv49vtKu7e+0641m5lt7m0lWSKVC5IZGUkMD6g153D1OcK03JNafqdOZSjKEbPqfqJ/wTY/5NU0H/AK/b3/0e1fEn/BSzx9c+Lf2kLvSDNvsPD9nDaQRq2VDuolkb6kuAf90V9U/8E/fjN8P/AAZ+zToul+IPHXhrQtTju7tnstS1e3t5lDTMVJR3BAI5HFfF37eFrpU37Q2ra7oGoWGr6DrkEN5aX2mXKXFvIQvlSBXQlSQ8bAgHiujAU2s1rSmv5rff/kZ4iV8JBJ9r/cer/wDBO39lbw38X4dZ8ZeL7BdW0/T7kWVlp82fJeUKHd5APvgBlAU8cnIPFfYfxX/Yg+FfxF8IXtjYeFNJ8P6j5TC01HRbWO1eGXHylhGAHGeqsDxnoea+bv8Aglz8dPDnh7Ste+H2uanbaVqN1ei/05ruRY0uSyKjxqx4LgopC9SCcdDX3D8Uviz4P+Bfg2+1vxBqdpptvFG8sNqZAJbqTGQkSZy7MfT6nABNeZmdXFxx7UW73XLa/wCB1YWFF4dNpeZ+Th/4J+fHW3uMx+E4so3yyLqtoOh4I/e5FQ/tteP/ABN4r+I+h6J4oPl6l4c0Kysbm3EyyKt00KyTtuUlSSzAEgn7or1KT/gq58SmkfZ4T8JhCTtDQXJOO2f39eM/tjaTrUfxXtfEOuafDpt54m0ax1h4LZWWJJHgVZFUMSRh1bgk19Ph3i5YiLxkYqyfLbfpfr2PKqKiqT9g30vc9l/4J5/soeG/jNDrPjDxhZ/2ppmnXS2dnp7sViklCh3eQDG4AMoC5wcnIPFfbvjL9jH4QeNfD0+nN4I0XTtylUu9HtI7SeJuzB4wCSPRsg9wa+VP+CX/AMfvDHhXStd+H/iHVLXRr27vRf6dLeSLFHcFkVHiDHA3gopAJ53HHSvvvxb458KfC7w1c6vr2r2GhaTGrStNcTKgcnnCjOWY9lXJJ6Cvls1q4uONkk2v5bX/AAPWwkKLoJ2XmfhH8U/Ak/ww+I3iPwpcyedLpF9LaebjHmKrfK2PdcH8a/Xv9gTx9deP/wBmLwvNfSme803zdLeRjklYmxHn38soPwr8kfjd4+j+KXxc8W+LIImhttV1CW4hjcYZYs4TPvtAzX6t/wDBOjwlceFP2XtAe6jMUuqT3GohWBB2O+1D+Kop/GvbzzXA03V+K6++2pw4D/eJKO2v5n05Xx1+3V+y/wCMf2jtU8OXWh69ommaHottN5y6nPKn71mBZ8pGwwFRRkkd6+xa/NP/AIKk/FrVdN8QaJ8NtKuH0/QnsxqeoQwEqLqR5GCK/qq7C2OmTnsMfL5TCrPFxVF2eurV7LqerjJQjRfOro4T4E+F/gf+z34u1bUPil4z8L+Or6KJF06y0O3uNUgjbJ3sx8nyi33QMscc9DXb/Gv9sX9nb4g+EtR0SL4b6nqVw8Dw2t62nWlqYGwdrxyCQumDg/dHoRjivCv2Nv2ZNE/aU8UaxY614lfRotOijlWytCguroMSCUL5AVcDJ2t94dK+iPjJ+zL+zb+zb4I1W61y+ufEPiP7Ow0/SbzVybqaYg7D5cHlkIDglmGAB64B+pxH1ZYpRqynOppotPu2/M8mn7V0bwUVHzPzztbmWyuYbiCRop4XEkciHBVgcgj3Br9jf2lvET+Lf2ENc1qU5mv/AA/aXMnOfncws36k1+QGq+GdY0K00+61PSb7TrXUYvPsp7u2eJLmP+/GzAB156rkV+ofxI+IXgzX/wBgTVdD0HxPoep6xa+F7OS606w1CGa4hIMAcvGrFlwxwcjgnFbZvHnq4ecVe0v1RGDfLGqn2PzL+HvjjW/hx4w07xF4cnS21uzcm1meBJtjMpXIVwVJwxxxX6v/ALP37EHgXw74TtdW8YaHYeL/ABhqafa9TvNXhW5jWaT53RI2BQBSSM43E5yew/J74eQJdeP/AAzDKu+OTU7ZGU9wZVBFf0C2FnDY2wjgjWJCS21Rxk9TXHxBXnS5I03bmvdrd22V+2rNsupqfM5a2Pz/AP8AgoX+yr4J8KfCg+OPCugWXh3UNOuoY7iPTIRBDPDI2zmNcKGDFTkAHGc54r42/ZK8Rz+Ff2kvh7fQOyE6tFbPtPVJT5bD8nNfpz/wUX/5NR8U/wDXa0/9KI6/K79nZd3x6+Hqnodesh/5GWt8qqSrZdUVR3tzLXtYjGRVPExcVbb8yh8avF9z4++LfjDxBduZJb/VLiUEnOE3kIv0ChR+FfoJ+w5+xd4H1H4U6P438XaLbeI9Y1lDcRQ6gvm29tCSQiiI/KzEAMSwOMjGO/53fFDw9ceE/iT4p0a6QpPY6ncQMCP7sjAH8Rg1+qX/AAT6+PfhLxh8EvD/AIR/tSzsfFWixG0m0yaVY5ZkUnZLGp++CuM4zgg5xxnTOJVaeCj9Xulpe3a35EYJQlXftN/Pudh8Tv2IPhR4+8N3VjF4Q0rw/elG+z6hololnLC+OG/dgBwD2YEV+Ovj2PWLTxfqun67qFxqepabcSWElxczNKx8pimAWJOOOBX7s/Fb4weE/g34VvNb8U6xa6dBDGzRwSSqJrlgMiOJM5dj6Ae5wOa/B7xj4hfxb4t1vXHjEL6lezXhjHRPMctj8M4rl4enXmpuo249L9+tv1NsyVOPLy7n7E/8E+P+TT/BX0uv/SmWvotHWQZVgwzjIOa+dP8Agnx/yaf4K+l1/wClMtfQ9taQ2cZSCNY0LFiF9T1NfI47/eqv+J/mexh/4UPRfkfB/wDwVr/5J74F/wCwrN/6Jr5p/wCCbf8AydXoX/Xje/8Aok19Lf8ABWv/AJJ74F/7Cs3/AKJr5U/4J/8AirRfBn7Sujap4g1iw0LTI7O7V73UrlLeFSYiFBdyACTwOa+xwSbyaSXaX6ni13bGpvuj9oaguLiJLSaUupjRSWYHgY6158/7SnwjRSx+KXgzA9PEFoT+Qkr5o/an/b58AeGPh9rXhj4c6pH4h8SalFJbfa9PU/ZbMOMPIZTgO2CdoTcM9SMc/HUMFiK81CMHr5HtVK9OnFyckfmJ4ouUvPE2r3ERzFLeTSKfUFyRXq37Q/i+91Hw18J/DEsp+x6H4UtpFizwJZyZGP12+WPwrzX4f+CdS+I/jXRfDOkxNNqGqXSW0YUZ25PLH2UZYn0Br6M/4KHfCRfhf8TvDX2KAx6Pc6Fb20DgcF7ceWw+uNh/4FX6dUqU1iaVF72bX3W/zPloxk6U5rbQxP2T/i38FPhHbajqHxE8Iap4q8RSzAWjRWFtdW1tCAPurNMv7wtnJ28ADB5Ne9/EH9s39mT4k6Dc6XrHw01+ZZYjElwuj2KTQccNHItyGQj2P6V53+wX8I/g18brTWfD/jjT0uPGENx51ksmoz25ubYqMqipIoYqwYnjOGHbp9d6t/wT8+AOg6Zc6jqXhxbCwtozLPc3Os3aRxoBkszGbAAr53HV8FTxT9sp867PT5anpYeFeVJcjjb+t9D8h4r1tM1ZLvTZpoWt5xLbTH5ZFKtlG4PDDAPB619zf8FDPDTeOfhZ8Kfi3FGpnvdPhs9QdB3liE0ZP0bzR+Irjb7x7+xzZ31xAnwz8X3ccUjIs8N7JslAOAy5vAcHqMgHnpX2b4u8FaD8ef2IJLHwrod5o+mXGji60Ww1AAzxmH5oc4Z+W8sc7iSG56104zGuFahWdOUUnZt22fo36mVChzQqQUk7rp5Hx5/wS9+Jn/CJ/HO98MXEpSz8S2LRopPH2iHMif8Ajnmj8RX3p+2d8T1+GH7OHi/VIJ1S9urc6ZaFTz5s37vj3VSzf8Br8aPht4zuvhv8QvD3ia1LLcaRfxXe0cEhHBZfxGR+NfYn/BSP4+eGfH+leCfC/gzWbDVtLw+sXrabcpMiSsNsaOUJw4BkJU8jcOKjHZe62Y0qiXuy3/7d/wA1ZFYfEcmGnG+q2+Z8i/CDwHP8T/ih4Y8KwKWbVL+KByv8Me7MjfggY/hX2x/wVY0RNN074XfY1CadbR3dpGifdTaIcD8h+lcj/wAEs/hkfEXxZ1rxhcQ7rXQbPyIGYcfaJsjI9wiv/wB9CvrD/goB8EX+JnwAvX0a08zVNAn/ALWghiXLSKARMoHclCWx3KiljMbGGaUoN6R/OX9IKFBvCTa3f6Hx1/wS11CC1/aJ1C3lIEt1oc6RZ7kSRMQPwB/Kv1nR1kGVYMM4yDmvwI+DPxR1H4L/ABN0HxjpiiS40y4DvAxwJoiCskZP+0pYZ7ZzX7T/AAS/aC+Hnxo8P2934S1uzNzKvmz6RLKsd5bufvB4id3X+IZU9ia87iDC1FWVdK8WvuaOnLqseT2bep6lX5zf8FbdTtpF+HNkjq9xuvZiFOSF/dL/AD/lX3Z8Q/iz4P8AhRo8up+LfEVhodrGpYC5mAkkwM4jjHzO3soJr8Yv2rPjwv7QPxYvNdsrZ7HQbZfsumWsgAdYQSS7AfxOxZj6ZA7Vz5FhalTEqtb3Y31+VjXMKsY0nC+rPXf+CXdjNcftEahcJu8q30K48zHT5pIgM18seMHKeMtbdGKsL+chgcEHzGr9I/8Aglv8HLnw34G13x7qMDQza8y21iHXBNtGSS49mc/+OA1+bXjIY8X64B0F9P8A+jGr6vC1Y1cfX5eiivzPHqwcMPTv1u/yP0i/Yo/ZI8NeOPh1p/xH+IlofGWv60GlgGtO1zHBApKICjkhyQuctnAwBjBz7j8R/wBiX4SfELw3c2MXhDSdDuCjCHUNDtY7SWF8YDfuwA2D/CwI9q4n/gnr8ffCvi34JaD4Ol1a0svFOhxtaPp1xKscs0YYlJIwSN42kA4zgjnqM/Q3xB+Jfg74M+F7vV/Emr2WiWEStIElkAkmbrtjT7zsfRQTXxWMrYuOMkk2nfRK+3SyPdowouinZWtqfg54w8NXPgzxZrOgXhBu9LvJrOUjoWjcqSPY4r6p+PnhTxD8Xf2TPg/8R7WGbU00DT5tI1Ux/O8UaSbElYD+H93hj2yM18v/ABD8Vt468e+I/EbR+SdW1Ce98v8AuCSRmA/AHFfcnwU/bL8Mfsw/Bvwt4E8SeEdavr6SxGptNb+UI5I7lmlTh2B+6wHSvt8a68Y0alKPNNPbys0zwaCptzjN2i1+uh8ofs3/AB/vP2dfHreI7TRLHXo5oDbT213lH8skEmKQAmNuBzgjGcg19S/Er4ufs/8A7Z1vosWvapd/CzxTayAG+vrJJFmVgcxG4U7dgOCGk2YwcAZNdH4B+EfwB/bmt9fv/Dfh6++H+vafIvnRWM0ULyKy/LJ5A3R7M5BIVTkcnkV4B+0t+wf4m/Z88Oz+J4datPEPhqGRI5ZvLNvcwl22qWjJYEZIGVYnnoBXC6uExOJXO3TrLTz/AFTOhQrUqWlpQ/r5n2H+zJ+wtofwi8f6N8QfD/j6fxDapDKsYhhiMFzHIhXiRHII5B4z0r7KR1kGVYMM4yDmvxs/YN+PXiD4WfGzw/oEV9PL4Y8Q3iWN5prOTFvkO1JlXorhtuSOoyD2x+x9raw2cZSCNY0LFiF9T1NfL5xRr0a69vPmutHa2h6uCnTnT/dqxNTUdZBlWDDOMg5p1Q21pDZxlII1jQsWIX1PU14R6BNTUdZBlWDDOMg5p1Q21pDZxlII1jQsWIX1PU0ATU1HWQZVgwzjIOadUNtaQ2cZSCNY0LFiF9T1NAE1NR1kGVYMM4yDmnVDbWkNnGUgjWNCxYhfU9TQBNRRRQAU1HWQZVgwzjIOadUNtaQ2cZSCNY0LFiF9T1NAE1NR1kGVYMM4yDmnVDbWkNnGUgjWNCxYhfU9TQBNTUdZBlWDDOMg5p1Q21pDZxlII1jQsWIX1PU0ATU1HWQZVgwzjIOadUNtaQ2cZSCNY0LFiF9T1NAE1NR1kGVYMM4yDmnVDbWkNnGUgjWNCxYhfU9TQBNTUdZBlWDDOMg5p1Q21pDZxlII1jQsWIX1PU0AeY/tGfAPRP2hvh5c+G9XLW8obz7O/jUNJazgEK4HcckFe4J6cEfk18Uv2LPiv8L7+ZG8NXPiTTVYiPUtAja7jcDuyKC6e+5QPc9a/bmqkWl2sEZSKFY1LFiFHc9TXs4HNa+BTjHWPZ/ocWIwlPEO70Z/PNf6XeaXM0V7aT2kqnBSeNkYH0IIrW8N/D7xR4ymEOg+G9W1qQ/w6fYyzn/x1TX9AJ0qA/w0yz0KzsEKQQrGpYsQB3PU17j4llbSlr6/8A4FlavrP8P+CfnP+xp+wD4h03xnpnjb4j2iaZBpsi3NjojOsksko5SSXaSFVTghckkjnGMH6Z/a+/ZN0z9pXwvby2dzFpvinTAwsNQYbo2B6wy452E9xkqeQDyD9GoioMKMVHbWkNpGY4Y1jQsWKr6nqa+fq5liK1dYlu0ltbZHowwtOFN0raM/C74h/sr/ABU+GV5PDrHgvVJbeLJ+3adA13bFR/F5kYIUH0bB9q8tmtZreXy5YZIpM42OpB/Kv6IpLOKX7yCqlv4fsrRCkMKxoWLEL6nqa92nxJUS/eU035O36M8+WWRb92Vj8FPCHwd8c+P544vDvhHWdX8xgoltrKQxKT/ekxtUe5IFfo7+wr+xLffB3U28ceM2t38TPC0Fpp8DiVLFW4dmccNIR8vy5ABPJzx9rx6fDGeEFOtLOCxiMdvEsSFixVR3PU1wY3O62LpulFcqe/V/edFDAQoyU27s/Ff9uLwBrng39o7xlealYTwWGrXzXtldtGRFPG4DfK3QlSSCOxFeG2miajqDhLWwurlyN22GFnOPXgV/QxPYRTtll5qtbaBZWcZSGFY1LFiB6nqa7aPEMqVKNN0rtK17/wDAMJ5apzclLfyPwLsvhX401JUa08Ia9dK5whg0ydwx9Bhea96/Yx+D/j3Q/wBpfwJquoeCfEdhplreSGe9utJuI4Yh5Mgy7sgC8kDk96/YIabAP4BTbPSbXT1K28KxKWLYUdz1NZ1uIKlWnKn7NK6a37lQy6MJKXNsWx0pFdZVJVgw6ZBzTqhtrSGzjKQRrGhYsQvqepr5M9g+S/2xP2GdP+PMreJvDk8Gi+NEQK8koP2e+UDCrLgEqw6BwDxwQeMfmd4+/Z7+I3wyuZo/EHhDVLWGI4N5DAZ7U/SaPcn4Zz61+9RGetU49HtIEKRQrGpYsQo7nkmvoMFnVfCQVNrmitr9PmedXwNOs+ZaM/npstJvtRuhbWllcXVyTtEMMTO5PpgDNe9/Bj9hj4ofFzUYDPo0/hPRC2JtS1mJomA77ITh3OOnAX1YV+zY0qAHO2n2WmW2nRlLeFYlLFiFHc9TXfW4jqyjalBRfrf/ACOeGWQTvOV/wPjH9o39mmD4ZfsV6h4H8A6HqGtXpvLSaVbO2a4u7yQTIXlZYwSeB2GFAA6CvzoT9n34pSDK/DXxewzjI0K6P/tOv3seNZFwwyKq22j2dnGUhgSNCxYhR3PU1xYTOquFhKLjzNu935m9bAwqyTvaysfg9/wz18VP+iaeMP8AwQ3X/wAbr0b9m74HfEXS/jx4Cvr/AMAeKLPT7fWbd57q50a5jiiQONzOxQBQO5Jr9oPsMP8AcFR2mk2lipWCFYlLFsKO56muqpxDVqQcHTWqt1MY5bCMlLm2PzL/AGuP+Ce2v6Z4k1HxX8NLH+1dIvJGuLjQoSBPaueW8kHh0JzhR8wzgAjp8S674X1nwvdNa6zpF9pFypw0N9bPC4PuGANf0LvGsgwwBFUYdBs7ZCkMKxqWLEL6nqanC5/WoQUKsea3nZ/qVVy6FSXNB2PwX8CfBXx38TLuK38M+E9V1bzG2efFbMIFP+1K2EUe7MK/UL9iP9jWL4BWVx4i8QT2+o+Mr+LyWa3O6GyizkxI38TEgbm9gBxkn6uj0+GI5CCn2tnDZRmOCNYkLFiq+p6mubHZ1WxkHSS5Yv8AH5mlDAwoy5m7s/M/9vP9izxG/jnUfiF4G0qbWrDU287UtNskL3EE/RpEQcurdSFBIOTjByPhUaHqR1L+zv7Puv7Q3bPsnkt5u7OMbMZzntiv6HZIklGGGao22gWVmpWGFY1LFiF6ZPU10YTP6uHpKlOHNbZ3t9+5nWy+FSblF2ufmz+w3+xn4m0zxHH8SfGmkTaVHpcbz6RpN5GVnnn2nbK8fVFXspwxODgADPyx4h+C3xc8T+INT1a8+HfjC5vL26luJpf7CujudmLMf9X6mv3aSFI12qoAqtb6RaWiFYYEjUsWIUdz1NRTz2tGrOrKKbdl6JXKll8HBQTtY+NPjF+yTe/HP9ln4dw2tudM8deHtFthbw3yGJm/coJbaTIyhJUYyOGXnAJr8zPGfw58UfDvUpLDxLoN/otyjFcXcDKrYOCUf7rjPdSQfWv6CQihduOPSqMWh2cClYoViUsWIUdz1NRgs7q4ROEo80b3tta/mOvgYVmmnZn4Y/CH9mz4gfGrWrWz0Dw/eLYyuBLq11C0VnAueWMhGCR12rlj2FfRH7Y3wI8R+G9P+H/w78B+CNb17QtA00zXOraXpEs4u7uRyHLvGpG4bSdpPG/0xX6nQ2UUJyqjNMi0u1gQrHCqKWLEAdz1NaVM+q1K0anIrR2Xn3bJjl8Iwcb6vqfCX/BLj4eeKvAn/CwP+El8M6x4d+0my8j+1bCW183b527b5ijdjIzjpkV97I6yDKsGGcZBzTYoEh+6oFNtrSGzjKQRrGhYsQvqeprxMXiXi60q0lZv/Kx3UaSowUE9iamq6yKSrBh0yDmnVDbWkNnGUgjWNCxYhfU9TXGbn5Jftz/Bvx/4q/ac8W6novgbxJrGmzC28q8sNIuJ4ZMW8YO10Qg4II4PUV9W/wDBMbwbr/gr4QeI7TxDoepaDdS600iQanaSWzunkxjcFcAkZBGfY19gPaRSNllBNNstPt9OiMdtEsSFixVfU9TXt180nXwiwriklbX0OCnhI06zqp73/E+a/wBtL9kW3/aO8O21/pc0On+MNLRhZ3MwxHPGeTDIQCQM8hudpJ4wTX5WeM/gv8RfhJqbHW/DWr6PJbybVv4omaAt6pOmUP4NX73EZ61Sj0a0gQpFCsalixCjueprTA5xWwUPZNc0e3/BJxGChXlzJ2Z+BSReN/ilqMNuqa/4uvlG2KICe9kUegHzEV9n/sef8E/Nam8Saf4y+JVothY2Miz2mhOyvLNIMFWnwSEUHB2H5iRhgAMH9KE0uBDkLUlnY29hEY7eJYkLFiFHc9TXTic+q1qbp0o8ifzf6GdLL4QlzTdz8Yf2kPgZ8SNZ+PXj6+0/4f8Aim/sbjWLmSC6ttFuZIpULnDKyoQwPqK82T9n34pSDK/DXxewzjI0K6P/ALTr96Gs4nOSgJqG20ezs4ykMCRoWLEKO56mtKfENWnBQVNaKxEsthKTfNufg9/wz18VP+iaeMP/AAQ3X/xuvtb4efsaXXxp/Y18PaVqljceFfHOj3l9JYPqlrJA6h5mJilRgGCOADnGQcEZ5B/RD7DD/cFFnYW9hEYreJYoyxYqo7nqawxGe168Y8sVFp3uv68zSlgKdNu7umrH4OfEf9n34ifCi9ng8S+E9Ssoom2/bY4GltX9CsyZQ59M59QK4/Q/DOseJ71bPR9JvtWu2OFgsbZ5pCfQKoJr+hOWxhl6qKrWmg2VihWCFY1LFiB6nqa7Y8STUbSpJv1/Sz/MweWRvpLT0PzG/ZL/AOCe3iPX/Eum+J/iTYHRtCtJFuItFuP+Pm8YcqJVH+rTPUN8xxjABzX2F+1t+yrpn7SXgi3gtriLTvEel7m03UCuUBI+aKTHOxsDpypAIB5B+hUjWMYUYpltaQ2kZjhjWNCxYqvqeprw6+Z4ivXWIbs47W2X9dTvp4WlTpuna6e5+EHxJ/Zy+I/wmvbiDxF4S1GC3hOP7Qt4GntHHYiZAV564JB9QK4TS9D1HW7xbTTtPur+6Y7VgtYWkcn0CqCc1/QxLYwy/eUVWtdAsrJCsMKxqWLED1PU17kOJJqNp0k362/R/mcDyyN9Jaeh+Tv7NX/BPnxn8SNdstT8cadceFfCsTrJLb3YMd7dgH7ixn5owcYLPg4PAPb9ZND0yz0XSbXT9PiigsrWNYIYYQAkaKMBQB0AAxVyOFIhhVApltaQ2cZSCNY0LFiF9T1NfP43H1cfJSqbLZLY9Ghh4YdWiTV8Lf8ABRn9l7X/AItDSfG/g60bV9U0y3azvdOgOZZoQxZWjH8TKS2VHJBGMkYr7pqvDYwW8RjiiWNCxYqB3PU1hhcTPCVVWp7o0rUo1oOEtj+ejVdA1PQr97HUtNu9PvUba1tdQNFIp9CrAHNeyfAD9kPx38cvEljGujXujeGjIpu9avYGijWPPzeVux5jcEALkA4zgV+17aVAxztpbHSrXTYylvCsSlixCjuepr6WrxHUlC1Omk+97/hZHlxyyKleUro/L39vL9mTx5/wsHRbzwp4b1PxB4StNHttNsYdKga5azEQKmMxoCwz97djB3deK8v+C3wU+Imn+FfirHc+AvE9tJeeGGtrZJdHuEM8v2u3by0BT5mwrHA5wD6V+zMkCS/eUGq9rpNpZRmOCFYkLFiFHc9TXHTzurCgqLina2vo7m8sBCVRzT3Pw9+HvwC+J9n4+8NTz/DjxbBBFqdtJJLJod0qoolUliTHgADnNfuVA6yRAqwYdMg5pgs4VOQgzS2tpDZRmOCNYkLFiF9T1NcWYZjLMHFyjaxvh8MsMmk73Pn79vfw3q/i39mbxJpmh6Ve6zqUstqY7PT7d55nAnQnCICTgAk8dq/NX9n/AOBvxH0z43eA768+H/im0sbbXLSSe5n0W5SKJFmUszMUwoAByT0r9r3jWRcMMiqtppNpYqVggWJSxbCjueprTB5pPCUJUIxTTv8AirEVsJGtUVRvY/P39vn9ivW/F/iOb4i+A9POpXk8YGraTAP30jKMCaIfxnaAGUcnAIBya/O7UNA1PSdRbT77Truyv1Yo1rcQNHKG9CpGc1/Q68ayLhhkVQg0GytVKwwrGpYsQvTJ6muzB57Vw1JUpx5kttbf5mNfL4VZ88Xa5+Q37Kf7E/i34s+MtN1PxNol5oXgu1lWe4l1CFoXvQCCIokbDEN0L42gZwSeKzP2m/hl8R/iB8cvFmp6X8M/Eo0iK7aysRY6DcGEwQ/u0ZSke0htu7I/vV+zEVtHCMKoFQQaRaWylYoFjUsWIA7nqaFn1b27rOK2sl27/MP7PhyciZ4d+wv4e1Xwr+zJ4R0zWtMvNH1KAXPm2d/bvBNHm4kI3I4BGQQeR0Ne9o6yDKsGGcZBzQiLGuFGBUdtaQ2cZSCNY0LFiF9T1NfPVqjrVJVH1bf3npQjyRUV0Piz/gqD4E8S+OvAvgyDw14e1XxDPBqUsk0WlWUty0amLAZhGpIGeMmvzpT9n34pSDK/DXxewzjI0K6P/tOv3rkhSUfMoNVrbR7OzjKQwJGhYsQo7nqa93BZ1UwdFUYwTsefXwMa83NysfhDH+zr8VZX2r8NPFwP+1odyo/MpXoHgX9g74zeObmIDwwNCtHOGvNYuUhWP6oC0n5Ia/aMWMP9wUlpp1tYRlLeFYkLFiFHc9TXTPiPENWjBL72ZRyymnrJnzb+yd+xV4f/AGdYm1a5uBr3i+4j8uXU3j2JAh6xwpk7R6seTjsOK7T9qD9nbR/2kvh1JolzMtpqVs5n07UUXcbeYDHI7qw4Yfj1Ar2eoba0hs4zHDGsaFixC+p6mvn5YuvKt9Ycvf7npKjBQ9mlofhd8T/2YPid8HdTnj1rwvftawMSuq6dE1xaMAeGEqDC5xnD7W9QK46XVPGPjY2+kSXeua/5ZCw2DSzXO09gseTg/QV/QDLZRTfeUZqra6BZWSFYIVjUsWIHqepr6SHEc+X95STfe9v0Z5byyN/dnZH5Qfsz/wDBPjxh8RdestV8d6dceFvCsTiSS1ux5d7eAH/ViM/NGDjlnAODwD1H6waVpdnpmjW+n2MUUNlbRLBFDEBsRFGAoHYADGKuxwpEMKoFMtrSGzjKQxrGhYsQvqeprwcbj6uPmpVNlslsj0KGHhh1aJ+L37Rf7LHjrwx8a/Ftn4d8DeItX0Jr57iyutN0meeExSfOFDohHy7tpGeNtebp+z78UpBlfhr4vYZxkaFdH/2nX70vaRSNlkBNQW2j2dmhSGBI0LFiFHc9TXtU+Iq0IKLgnY4ZZbCUm1I+dv8Agn/8H7v4S/AGwXVrCbTdd1eeTULy3uojHNFk7Y0dWAKkIqnB5BJr6RdY7qJlyrqcg4ORT0QIMKMCo7a0hs4ykEaxoWLEL6nqa+ar1pYirKrLdu56lOCpwUF0Pzq/aw/4Jx3uo61e+KvhZFBm5czXXh2R1iUOTktbucKATzsYgDnB6KPhLxT8MvF3ge4aHxB4Z1bR3DFc3lnJGrEddrEYYe4JFf0DMocYIzVKLQ7O3QpFCsSlixCjuepr6DCZ9Xw8FCoudL5P7zzq2X06j5oux/P14d8FeIfF9ytvoWhalrU7dItPtJJ2P4IDX1/+zT/wTi8SeMNWtNZ+JEJ0Lw/Ewk/slJQbu6xg7X2kiJT3yd/UYXqP1KTTIEOQtPs7G3sIzHbxLEhYsQo7nqavE8QV6sXGlHlv13f6E0supwd5u5W0fRLPw7ottpun20VnZWsSww28KhUjRRhVAHQACv5/fF0jReNNakRtrrqE7KR2Ikav6EJf9W30r+ezxkMeL9cA6C+n/wDRjV1cN6yq38v1Msz0UPn+h9s/H/8AZl1b4/8Awn8E/GHwLpCy6ze6NB/a+jWqKjzlVwZolHDMCCCo5I24yRg/D2q+HtV0G/ax1PTLzTr1W2tbXcDxSA+hVgDmv2y/YzjWT9lz4chhkf2Un82r1uDQbK1UrDCsSlixC+p6msqed1MFKVCUOZRbS1s7X+ZcsDGulUTs2lc/Hf8AZj/Yo8ZfGnxRYXetaReaB4MikWS6vb2JoXuUGD5cCtgsW6bwNo55yAD9g/tt/sVTfF7R9I1/wHFbR+INFtFsBp29Y47q2T7kaseFdMkDcQCDgkYFfacNtHAPlUCmwWcFrEY4oljQsWKgdz1NedWznEVa8a605dl087+p0wwVOFN03rfqfghqHhT4i/BXXVurnTfEXgzVICVjvFjmtHHqUlXGR7qcGo9Z+IPxE+KiQaXq3iXxP4wVZA0Vle39xfAP2KozNz16Cv3wk02CQ5Kiq9roFlZIUhhWNSxYgep6mvTXEV/elRTl3v8A8D9Tl/s3op6f15n5ifsO/sXeMrr4maL458Y6PceHdE0eYXdva6ghiubqdfufuj8yKpwxLAZwAAQSR+pcbq65VgwHGQc0kcKRDCqBTLa0hs4ykEaxoWLEL6nqa+exuNqY6p7Spp0SPRoUI4ePLEmpqOsgyrBhnGQc06oba0hs4ykEaxoWLEL6nqa886Samo6yDKsGGcZBzTqhtrSGzjKQRrGhYsQvqepoAmpqOsgyrBhnGQc06oba0hs4ykEaxoWLEL6nqaAJqajrIMqwYZxkHNOqG2tIbOMpBGsaFixC+p6mgCaiiigApqOsgyrBhnGQc06oba0hs4ykEaxoWLEL6nqaAJqajrIMqwYZxkHNOqG2tIbOMpBGsaFixC+p6mgCamo6yDKsGGcZBzTqhtrSGzjKQRrGhYsQvqepoAmpqOsgyrBhnGQc06oba0hs4ykEaxoWLEL6nqaAJqajrIMqwYZxkHNOqG2tIbOMpBGsaFixC+p6mgCamo6yDKsGGcZBzTqhtrSGzjKQRrGhYsQvqepoAmpqOsgyrBhnGQc06oba0hs4ykEaxoWLEL6nqaAJqajrIMqwYZxkHNOqG2tIbOMpBGsaFixC+p6mgCamo6yDKsGGcZBzTqhtrSGzjKQRrGhYsQvqepoAmpqOsgyrBhnGQc06oba0hs4ykEaxoWLEL6nqaAJqajrIMqwYZxkHNOqG2tIbOMpBGsaFixC+p6mgCamo6yDKsGGcZBzTqhtrSGzjKQRrGhYsQvqepoAmpqOsgyrBhnGQc06oba0hs4ykEaxoWLEL6nqaAJqajrIMqwYZxkHNOqG2tIbOMpBGsaFixC+p6mgCamo6yDKsGGcZBzTqhtrSGzjKQRrGhYsQvqepoAmpqOsgyrBhnGQc06oba0hs4ykEaxoWLEL6nqaAJqajrIMqwYZxkHNOqG2tIbOMpBGsaFixC+p6mgCamo6yDKsGGcZBzTqhtrSGzjKQRrGhYsQvqepoAmpqOsgyrBhnGQc06oba0hs4ykEaxoWLEL6nqaAJqajrIMqwYZxkHNOqG2tIbOMpBGsaFixC+p6mgCamo6yDKsGGcZBzTqhtrSGzjKQRrGhYsQvqepoAmpqOsgyrBhnGQc06oba0hs4ykEaxoWLEL6nqaAJqajrIMqwYZxkHNOqG2tIbOMpBGsaFixC+p6mgCamo6yDKsGGcZBzTqhtrSGzjKQRrGhYsQvqepoAmpqOsgyrBhnGQc06oba0hs4ykEaxoWLEL6nqaAJqajrIMqwYZxkHNOqG2tIbOMpBGsaFixC+p6mgCamo6yDKsGGcZBzTqhtrSGzjKQRrGhYsQvqepoAmpqOsgyrBhnGQc06oba0hs4ykEaxoWLEL6nqaAJqajrIMqwYZxkHNOqG2tIbOMpBGsaFixC+p6mgCamo6yDKsGGcZBzTqhtrSGzjKQRrGhYsQvqepoAmpqOsgyrBhnGQc06oba0hs4ykEaxoWLEL6nqaAJqajrIMqwYZxkHNOqG2tIbOMpBGsaFixC+p6mgCamo6yDKsGGcZBzTqhtrSGzjKQRrGhYsQvqepoAmpqOsgyrBhnGQc06oba0hs4ykEaxoWLEL6nqaAJqajrIMqwYZxkHNOqG2tIbOMpBGsaFixC+p6mgCamo6yDKsGGcZBzTqhtrSGzjKQRrGhYsQvqepoAmryX4lftX/Cb4Q60NH8V+NLPTtUwC9pDFNdSR56b1hR9mRz82OK9ZPQ4r8aP2p/2Z/idpfxy8W3sPhPWvEGn6pqM17aahpdlJdRvHI5ZVJjU7WUHbtOOnGRg17GWYSjjKrhXnypLyV/vOLFVqlGCdONz9efBHj3w78SfD1vrvhfWLTXNJnyEurSTcuR1UjqrDupAI7it1HWQZVgwzjIOa+O/+Cavwd8YfCn4c+IZ/FllcaP8A2zeRz2umXQ2yxqqEGR06oWyBtOD8gyOlfSHxS+JGg/Av4d6t4t1iC4/sjT9sk0VjGHldncKNqlgCSzDqRXJiKEaeIlRovm1svP8ArY2p1HKmpzVjtqajrIMqwYZxkHNfn7B/wVEvPHPxM8NeG/CPgyHT9L1HVrezlvtZnMs7QySKpKxR7VjbBPV3HtX39a2sNpEUgjWJCxYhfU9TRicHWwnL7ZWbClWhWvyO9iamo6yDKsGGcZBzTqhtrSGzjKQRrGhYsQvqepriNyamo6yDKsGGcZBzTqhtrSGzjKQRrGhYsQvqepoAmpqOsgyrBhnGQc06oba0hs4ykEaxoWLEL6nqaAJqajrIMqwYZxkHNOqG2tIbOMpBGsaFixC+p6mgCamo6yDKsGGcZBzTqhtrSGzjKQRrGhYsQvqepoAmpqOsgyrBhnGQc06oba0hs4ykEaxoWLEL6nqaAJqajrIMqwYZxkHNOqG2tIbOMpBGsaFixC+p6mgCamo6yDKsGGcZBzTqhtrSGzjKQRrGhYsQvqepoAmpqOsgyrBhnGQc06oba0hs4ykEaxoWLEL6nqaAJqajrIMqwYZxkHNOqG2tIbOMpBGsaFixC+p6mgCamo6yDKsGGcZBzTqhtrSGzjKQRrGhYsQvqepoAmpqOsgyrBhnGQc06oba0hs4ykEaxoWLEL6nqaAJqajrIMqwYZxkHNOqG2tIbOMpBGsaFixC+p6mgCRxuUj1r5Xvv+CcvwZ1a/ubyTSL6SSeVpJGXU5sFiST0b1NfVVQ21pDZxlII1jQsWIX1PU10UsRVoX9lJxv2ZnOnCp8auYfw+8DaX8NfBuleGdFieHStMhEFvHJIXZUGcAseT1710COsgyrBhnGQc06oba0hs4ykEaxoWLEL6nqaxbcm5SerLSsrImpqOsgyrBhnGQc06oba0hs4ykEaxoWLEL6nqakZNTUdZBlWDDOMg5p1Q21pDZxlII1jQsWIX1PU0ATU1HWQZVgwzjIOadUNtaQ2cZSCNY0LFiF9T1NAE1NR1kGVYMM4yDmnVDbWkNnGUgjWNCxYhfU9TQBNTUdZBlWDDOMg5p1Q21pDZxlII1jQsWIX1PU0ATU1HWQZVgwzjIOadUNtaQ2cZSCNY0LFiF9T1NAE1NR1kGVYMM4yDmnVDbWkNnGUgjWNCxYhfU9TQBNRRRQAU1HWQZVgwzjIOadUNtaQ2cZSCNY0LFiF9T1NAE1NR1kGVYMM4yDmnVDbWkNnGUgjWNCxYhfU9TQBNTUdZBlWDDOMg5p1Q21pDZxlII1jQsWIX1PU0ATU1HWQZVgwzjIOadUNtaQ2cZSCNY0LFiF9T1NAE1NR1kGVYMM4yDmnVDbWkNnGUgjWNCxYhfU9TQBNTUdZBlWDDOMg5p1Q21pDZxlII1jQsWIX1PU0ATU1HWQZVgwzjIOadUNtaQ2cZSCNY0LFiF9T1NAE1NR1kGVYMM4yDmnVDbWkNnGUgjWNCxYhfU9TQBNTUdZBlWDDOMg5p1Q21pDZxlII1jQsWIX1PU0ATU1HWQZVgwzjIOadUNtaQ2cZSCNY0LFiF9T1NAE1NR1kGVYMM4yDmnVDbWkNnGUgjWNCxYhfU9TQBNTUdZBlWDDOMg5p1Q21pDZxlII1jQsWIX1PU0ATU1HWQZVgwzjIOadUNtaQ2cZSCNY0LFiF9T1NAE1NR1kGVYMM4yDmnVDbWkNnGUgjWNCxYhfU9TQBNTUdZBlWDDOMg5p1Q21pDZxlII1jQsWIX1PU0ATU1HWQZVgwzjIOadUNtaQ2cZSCNY0LFiF9T1NAE1NR1kGVYMM4yDmnVDbWkNnGUgjWNCxYhfU9TQBNTUdZBlWDDOMg5p1Q21pDZxlII1jQsWIX1PU0ATU1HWQZVgwzjIOadUNtaQ2cZSCNY0LFiF9T1NAE1NR1kGVYMM4yDmnVDbWkNnGUgjWNCxYhfU9TQBNTUdZBlWDDOMg5p1Q21pDZxlII1jQsWIX1PU0ASO6xozMwVVGSxOABXwN+0T/AMFQLbwprd3oHww0uz12W2cxTa7qRZrVmBwRDGjKXH+2WA44DDBPsn/BQv4m3nw2/Zt1ddOme3vtcnj0lJozhkSQMZMHtlEZf+BV+S3wk+HF98XPiRoHhDT5FgudVuRB5zDIiTBZ3I77VDHHfFfW5Pl1GrTlisTrFdOmm7Z4+NxM4SVKluz2i5/4KMfHue8MyeMbe3jJJ+zxaRZlB7ZaIt+tez/Bv/gqtr1nqdvZfEvQbTUdMchH1TRozDcRertEWKSfRdn49K9+0b/gmt8GrHw9HZXejX2pXwj2tqc+pTpMzf3tqMsY+mz86+Gv2h/2IfGnwv8AiNcaZ4Q0DXfF3h2WNbi0vbSxedowSQYpGRcb1I68ZBBwM4r0aVXKcc3RUFHzso/c1+pzTjjMOlPmv+J+wPhfxZo/jTw1YeINE1CHUdGvoRcW95E3yOh789MdweQQQeRXxF+0T/wU+sPB2s3egfDPS7TxDdWzmKbW9RLGz3DgiJEIaQf7ZZRxwGHNeD+FfH3xK+An7H/xB8J69oeueGxqN/b2mlT6jay2+xLgP9qWMsB/DF0HQyE96+avhP8ADm++LfxG0DwhprrDdarcrAJmGREnJdyO+1Qxx3xWOCyehCVSrXfNCL07Wte7t/W5dfG1GowpqzZ7Vf8A/BRr49Xl4ZovF1tYxlsi3g0i0KAemXiZsfjmvUPhT/wVU8a6LqFtb+PtEsPEelEhZbvTo/st4ozy2M+W+B/DtTP94V9J+Gf+Cavwc0nQorTUdHvdcvQmH1C61GeORm7kLE6IB6Dafxr4b/bY/ZRt/wBmvxNpVxol1cXfhnWRJ9nW7IaW3lTG6MsANwwwIOM9Qc4yeijVyrHz+rxpWfTRK/o1r95nUhi8PH2jnf53P1b0L4waH48+Elz468IX0Oqaf9hmuYGcH5ZEQkxyLkFWBGCvB/Q1+cC/8FXPi4zADw54LJPAAsbvn/yaql/wTz+J15pU/wARvA0szvpeq+H7u/hiJysdxFGQSB23Ixz67F9K+SND1Z9B1qw1KKGG4ls50uEiuF3RuysGAYZGRkcjNGCymjTq1qdWPNa1r9ncK+MnKEJRdr3ufqP+1R+3xqfwX0Tw9oGh6ZZTeP8AUNMt77UmuVY2+mmRAdgj3ZZyckAtgDBO7NfKfhf/AIKV/G7RNdjvdT1nT/EViGy+m3mmwRRle4Dwojg+hJP0PSvpr4Ffsg6F+0H4f/4Wv8XLaTXvEniwC+WzhuJbW2tYcBYgojZWJKKDyxABAxwSfj39tv4CaR+z98YV0fw/5yaJf2SX1tDPIZGhyzKyBjyQCmRnJweSetRgIZdKTwbhefVtaX62e+nyHiJYlL23NaPT/gn6neHf2nvCOufs9/8AC3JJHtNCitGnubckNLFMp2tB6F9/yjpnIPGa/Oj4g/8ABTX4weJdcln8N3dh4P0oOfJtLeyiuZCmePMkmV9zY6lQo9qx/wBkPQvEv7QKN8FJtSay+H4uj4h1QwJ/pB2BUEaOcgBmKcEHBGe2K+nv2kv+Cf3wz8MfBPxHrnhTSbnR9c0aye+jnW+nnE4jXcyusjsOQDyoGDjtxXPTo4DLsQ6NePM5PTS6Se179fvNZTxGJpKdN2SWvmyP9jP/AIKD6r8T/GVn4F+IsVmuqX2U07WbSPyRNKBnypUHyhm52su0ZwMc5rZ/bU/be8bfs6fEzTPDvhbTPD2oWNzpiXjy6pbzyyCQySIQDHMgxhBxjOc81+YvgzXbjwv4v0TWLSQxXNhew3Ubg8hkcMP5V9V/8FPlg/4XZ4ckt41jjl8PQy4Xplppjn9a7amWYeGPh7nuyT06XX/DnPHFVXh5a6prU+jf2cf2+Ne8bfD74jeNPiNpekafonheG3MDaJbyxtcTSFwIf3srgsSEAxjG7Jr5g8d/8FMvjL4k1yW40DULDwlpoc+TZWthDcnZngPJMjlmx1KhR6AVQ/Y/8Iax+0Tj4Q3M0eneA7S6PiLVprOPbd3DqBGkZkJIwSwA44AJ619GftW/sFfDfwV8Ddf8S+ENKuNG1jRIBeeYL2adbhFI3q6yOwHy5OVxyB24rFwy/CYt0qsLuTVla6S2V79W9eppzYmtRU4S0W/dnUfsQ/t2aj8cNffwR45gtIfEvktNY6jaJ5SXoQZdHTOBIBlsrgEA8DHOd+2d/wAFAtQ+EfiubwP8PoLK41u1Uf2jq14nmpbOwyIo0yAXAIJLZAzjBOcfm58OvH2r/C7xtpHirQpI4tW0ubz4DKu5CcEEMMjIIJBHvX6b/CX9gPwZ4u8Lp4r+JllP4j8YeIs6pfE3c1tFbSTfvDHGsTqeN2DuJ5HGBxUYzB4LAYhYirH3HtFd+vyHQrV8RT9nB+8uvl/mfK/gX/gpj8ZfDmuw3OvahYeLdM3jzrG6sIbYlM8hJIUQq2OhYMPUGvtr44/thy+G/wBl7Rviz8P4NP1A6ldQQC31eN5Eh3bxIjrG6HerIR97HHcEV+af7WHwcsvgT8b9b8K6XJNJpUaxXNp9obc6xyIG2lsc4O4Z9vWuw0LxJNqH7BPinRpHLR6d4xtJIlP8KywsSPzQn8a7MRgMJXVHEUoJJtdLXT8jGniK1Pnpzlqk/vR9B/s/f8FHfiT8VvjP4T8JavonhW303VrwW88tlaXKzKu0nKlrhgDx3Br9GUkWQZRgw6ZBzX4d/sZ/8nRfDn/sJr/6A1fuBa2kNnFsgjWNCSxC+p6mvns8w9LDVoxpRsmv1Z6WAqTq025u+p4F+2t+0J4h/Zw+F+neI/DVlpl9f3OqR2TR6rFJJEEaORiQI5EOcoO+OvFfOn7M/wDwUP8AiL8ZPjb4a8H65ovhe10vUpJVml0+1uUmULE7jaXuGUcqOqniu8/4Krf8kC0T/sPw/wDomaviD9hH/k6vwL/12n/9J5a7sDhKFTLZ1pwTklLX0Rz161SOKjBPTQ9r8X/8FR/iroHizW9MttA8HPb2V9PbRtLZXRcqkjKCxFyBnA5wBX0Z4l/bui+Hf7NHg3xx4j0y1uvG/ia1eS00Sy3QwkhiPMbczMsQG09SSWAHXI/K/wCJBx8RvFORkf2tdcf9tmr7c/Z3/Z5/4bR+y+PvH1umkeFtJt49F0nQtELwxSpD95izMzBcsQdpBLZ5AHPdjcDgqNOFWcLRWrtu9NF8/wBDnoV685ShF3fTy8zyDXf+Ckvx11fVWurTxDp+iW5ORY2OlW7xAemZlkf/AMer6U/ZR/4KRXPj/wAV2Hg/4lWdlZX1/IsFjrdipiieU8LHNGSQpY8B1IGSBtHWup+L3/BNz4Y3vgPVX8JaVceHtet7d5rWeK+nnSSRVJCOsruNpIx8uCM1+UscktncK6M0U0TAhhwVYHr9Qa0oUcuzWjKNGnyteSTXZ6bk1J4nCTTnK9/uP1h/bs/bA8a/s3eJPDWleFLPRZ4tUspbiaXUreSWRGVwo2bZFGOe4NfGesf8FF/jlqsxkh8R2OmjOdlrpNsw6/8ATRHP6199337PXgz9rnwH8O/GXjSC8vL7+woCFt7poUJkRXckLyTuz3r85P21fhL4d+Cnxvn8MeF7SSz0uPT7ecRyzPKxdwSxLMSew9q5cqWBqWw06adRXu2lbR/10NsY68b1VK0XtqfoJ+zF+1Vr/wAVf2Y/F3jDVLWybxR4Yjukd0iKwXLRwebG7ICMZzhgpHTjGePh/wCMX/BQb4ifG74e6p4O13RvDFppmo+X5sun2twky7JFcbS87L1UdVPFfR//AATI8N2/jL9nz4laDdvLHa6nqMlnK8BAkVJLVFJUkEA4PGQfpXH/ALTv/BPzwJ8Evgr4h8Y6PrHiS61DThD5UV/c27wtvmRDuCwKejHoRzUUPqOHx1SlUjrzLl02/plVPb1MPGcXpZ3Phnwl4kufBvinSNeso4pbzTLuK8hScExs8bhlDAEEjIGcEfWvrsf8FXfi2Bj/AIR3wX/4A3f/AMlV8pfDbw3beMviF4Z0G8eWK01PUrezleAgSKkkiqSpIIBweMg/Sv0rX/glN8MTj/ioPF+P+vy1/wDkavYzKtgacorFxu+mlziwsMRJP2Lsc3+0T+3X8X/gprPhz7PoPhO50XX9GtdUs7m4sbotueJTNGSLkAlXJ7fdZc1137FX7dmv/tCfEDU/CnjHT9E0y8Nn9q05tJimi80of3iMJJXydpDDGOFbrXUftp/s3w+Of2bIdP0iKS51fwfapPpryYaWWOKMLJGSAMlo1zwBllXivyx+DnxGu/hJ8UPDXi6zyZNKvEmdB/y0iziRP+BIWH415GEwuFzDBS9nBKauvn0+/wDzOytVq4auuaXuv+mfv3X57ftOf8FIPFnwt+Mmt+E/BWl+HNR0rSSlvLdanBPLI9wBmQAxzIMKTtxjOVPNfZHxK+L2leBvgrq/xBSeO406DS/t9q4b5Zy6AwqD/tMyD8a/CZ21Lxr4nZsSX+satd5wOWmmlf8AmWb9a4ckwFPESnUrxvFaa9/+B+pvj8RKmoxpvVn6zfsQftN/Ev8AaWudf1HxPpHh7TfDWnKsEU2l2txHLNctztDSTONqryeM5Zea+skdZBlWDDOMg5ry/wDZr+D1t8Dvg/oHhaIK11BD5t7Mo/1ty/zSN9MnA9lFemW1pDZxlII1jQsWIX1PU14OMnSqV5OirR6f15noUYzjTSm7vqTU1HWQZVgwzjIOadUNtaQ2cZSCNY0LFiF9T1NcZuTU1HWQZVgwzjIOadUNtaQ2cZSCNY0LFiF9T1NAE1NR1kGVYMM4yDmnVDbWkNnGUgjWNCxYhfU9TQBNTUdZBlWDDOMg5p1Q21pDZxlII1jQsWIX1PU0ATU1HWQZVgwzjIOadUNtaQ2cZSCNY0LFiF9T1NAE1NR1kGVYMM4yDmnVDbWkNnGUgjWNCxYhfU9TQBNTUdZBlWDDOMg5p1Q21pDZxlII1jQsWIX1PU0ATU1HWQZVgwzjIOadUNtaQ2cZSCNY0LFiF9T1NAE1NR1kGVYMM4yDmnVDbWkNnGUgjWNCxYhfU9TQBNTUdZBlWDDOMg5p1Q21pDZxlII1jQsWIX1PU0ATU1HWQZVgwzjIOadUNtaQ2cZSCNY0LFiF9T1NAE1NR1kGVYMM4yDmnVDbWkNnGUgjWNCxYhfU9TQBNTUdZBlWDDOMg5p1Q21pDZxlII1jQsWIX1PU0ATU1HWQZVgwzjIOadUNtaQ2cZSCNY0LFiF9T1NAE1NR1kGVYMM4yDmnVDbWkNnGUgjWNCxYhfU9TQBNTUdZBlWDDOMg5p1Q21pDZxlII1jQsWIX1PU0ATU1HWQZVgwzjIOadUNtaQ2cZSCNY0LFiF9T1NAE1NR1kGVYMM4yDmnVDbWkNnGUgjWNCxYhfU9TQBNTUdZBlWDDOMg5p1Q21pDZxlII1jQsWIX1PU0ATUUUUAFNR1kGVYMM4yDmnVDbWkNnGUgjWNCxYhfU9TQBNTUdZBlWDDOMg5p1Q21pDZxlII1jQsWIX1PU0ATU1HWQZVgwzjIOadUNtaQ2cZSCNY0LFiF9T1NAE1NR1kGVYMM4yDmnVDbWkNnGUgjWNCxYhfU9TQBNTUdZBlWDDOMg5p1Q21pDZxlII1jQsWIX1PU0ATU1HWQZVgwzjIOadUNtaQ2cZSCNY0LFiF9T1NAE1NR1kGVYMM4yDmnVDbWkNnGUgjWNCxYhfU9TQBNTUdZBlWDDOMg5p1Q21pDZxlII1jQsWIX1PU0ATU1HWQZVgwzjIOadUNtaQ2cZSCNY0LFiF9T1NAE1NR1kGVYMM4yDmnVDbWkNnGUgjWNCxYhfU9TQBNTUdZBlWDDOMg5p1Q21pDZxlII1jQsWIX1PU0ATU1HWQZVgwzjIOadUNtaQ2cZSCNY0LFiF9T1NAE1NR1kGVYMM4yDmnVDbWkNnGUgjWNCxYhfU9TQBNTUdZBlWDDOMg5p1Q21pDZxlII1jQsWIX1PU0ATU1HWQZVgwzjIOadUNtaQ2cZSCNY0LFiF9T1NAE1NR1kGVYMM4yDmnVDbWkNnGUgjWNCxYhfU9TQBNTUdZBlWDDOMg5p1Q21pDZxlII1jQsWIX1PU0ATU1HWQZVgwzjIOadUNtaQ2cZSCNY0LFiF9T1NAE1NR1kGVYMM4yDmnVDbWkNnGUgjWNCxYhfU9TQBNTUdZBlWDDOMg5p1Q21pDZxlII1jQsWIX1PU0ATU1HWQZVgwzjIOadUNtaQ2cZSCNY0LFiF9T1NAHx3/wVM0C41T9n3T7+FGePTdZhmmx0VGSSPJ/4Eyj8a/P/APZA8fab8NP2jfBeu6zMlrpcd01vcXEhwsKyxtHvJ7AFwSewzX7Q/E34f6X8UvAus+FtZiM2nanbtBKF4Zc9GU9mU4IPqBX4s/H/APZg8afs++ILm31jTprvQvMItNct4y1tMhPy7iP9W/qjc9cZGCfuMkr0q2Gngqjs3f5p9vM8HHU5wqqvFaf5H7mQypPCkkbrJG6hldTkMD0IPpXx9+0Z/wAFD/DfwR+I8/hOw8MjxjPaRKby6ttTWFIJiTmEjy3ywGCeeCcdQa/MTS/jF490TQxouneN/Edho4UoNOtdWuI7cKeo8tXC49sU/wCGfwi8YfGTX00rwpol1q9yzASzIpEMAP8AFLIflQfU89smroZBRoSdTFTvFfL5t3JnmE6iUaUbP7z6n/aV/aTl/a0/Z+1PUrLwbN4cs/C2s2Uk0xvhciTzkmTHESYwdvc/eFeEfsh/EDTPhj+0V4M17WZlttLjumguLhzhYVljaPeT2ALgk9gDX6efBz9jzQPAf7OuofDnV9upSa3E76vdxjHmTsAAY8jICYXbn+7nHJr8xv2gf2V/G37P2uXMeqadNf8Ah7zCLXXbWMtbyJn5d5H+rf1Vsc5xkc10YDEYStGrgqfuxd7eaatpfzuzPEUq0HCvLV9fU/cW3niureOaCRJoZFDpJGwZWUjIII6g1+cH/BV74laNqk/g/wAGWN3Dd6pYyy396kThjbhlCxq2OjH5jjrgA9xn4j0H4w+PfCukjS9F8b+I9H0wZAsrDVriCEZ6/IjgfpVXwd4F8U/FXxGNO8PaTfeIdWuH3OIEMhyTy8jnhRnqzED1NTg8lWCr/WKlS6j8vvHXx3t4ezjHVntv7B+gXGqfFLxJfxqxg0zwvqU0rDoN8XlqD9d5/Kvm2v13/Zy/ZaX9nL4BeLn1N4rrxXq+mzy6hNFykSrC+yFD3C5JJ7knsBX5EV6WBxUMXiK06ey5Uvlc5sRSdGnCMt9X+R+/HwStY7L4PeCIYl2xpolkAP8AtglfnD/wVadX+NXhgowYf2GBkHP/AC3kr9JPg7/ySXwX/wBgWy/9EJX5sf8ABVW1hs/jP4YSGNY0Oi7iF9TPJk18jk3/ACMf/Aj2Mb/u33HRf8Ek7WOTxx8QLgj97Hp9qin0DSOT/wCgivuz9ox1k+APxEKsGH9g3wyDn/lg9fDH/BJD/kbviL/15Wf/AKHLX3J+0NaQ2f7P/wAREgjWNDoV+xC+phfJpZr/AMjR+sfyQYT/AHX7z8Irb/j5i/3x/Ovrn/gpe6yfFzwgVYMP+EYthkHP/LWWvka2/wCPmL/fH86+tf8AgpTaxWnxZ8IpDGI1Phm3YhfUyykmvtq/++UfSX6Hhw/gT+X6npX/AASQtY28RfEW4K5lW2s0B9AWlJ/kK+yv2uXWT9mT4lFWDD+xLkZBz/Aa+O/+CR3/ACF/iP8A9cbL/wBCmr7A/aytIbP9mL4lpBGsaHRbpiF9Spya+LzL/ka/OP6HuYb/AHT5P9T8Q9ChW41vT4nGUe4jVh7FgK/oV0oRpp9ukRXYiBRt6DA6V/Pb4c/5GHS/+vqL/wBDFf0I6Vaw2dhEkMaxoRuIX1PU16HEu9L5/oc2V/b+X6n5Ff8ABTH/AJOivf8AsFWn8mrjPBFlLd/sa/E2SMZW28R6TLJ7LsmT+biuz/4KZf8AJ0V7/wBgq0/k1ekf8E+/hnZ/GD4BfGTwjet5UWpyW0Sy4yYpBG7Rvj/ZYKfwr01VVDLaVWWy5PzRyuDqYqcV1v8AkfLP7MXiqx8FftBeAta1KVbewttVh8+ZzhY1Y7CxPYDdk/Sv3bgmjuIleJ1kQjhkOQfxr8BPil8KPE3wc8WXXh/xRpkun3kLERyMp8q4QHiSJ+jqfUdOhwQRVvwx8VfiZDa2vhrw74w8VpbSkQW+kaZqdyEcngIkKNg59AKMyy1Zk4Vqc0rL1VgwuKeFvCUT7Q/4KpfF3TNduPDvw+0q4W9vNLmbUdU8g7hbsU2RRsR0bDOxHYFfWvnL9hH/AJOr8C/9dp//AEnlr1bxt8Ite/Zl/Ys1S41hDB4q8d6pbW+oqzZe1tQryLET3YlTu/3yO1eU/sI/8nV+Bf8ArtP/AOk8tGHjThl1WnSd4xUlfvpq/v2Co5SxMJT0btp2PJviV/yUXxV/2Fbr/wBHNX7F/sHWMFl+yp4D8kAeZbSyv/vNPITX46fEr/kovir/ALCt1/6Oav2S/YZjWP8AZV+H21Qu6ydjjufOkrlz/wD3On6r8ma5d/Gl6fqe3ar/AMg26/65t/I1/PJqf/ISu/8Arq/8zX9Deqf8g25/65t/I1/PJqXGo3X/AF1f+Zrm4a/5e/L9TXNPsfP9D90v2Wv+Tc/hx/2ArT/0Utfmh/wUvdZP2oL0qwYf2XaDIOezV5L+0Ec+IPCn/Yp6P/6SpXltenl+WewrPF89+a+lu/nf9DlxOK9pD2PLsfqJ/wAEmf8Akk3jP/sNj/0njr1z/goI6yfsneNSjBhi1GQc/wDLzFX4v19X/s/6Pe67+xV8fLaxga4mSfT7ho0GTsjbe5x7KpP4VzYzLFDErGuf2o6W80t7/oa0cVzUvYcvR6/I8K+BH/JbfAP/AGHrH/0elfvjE6yICrBh0yDmv527G/udLvYLyzuJbS7t5FlhuIHKSRuDlWVhyCCMgiupufjF4+vYzHceOPEc8ZBBSXVrhgQeowX712ZnlcswnGUZWsYYXFrDRaavc/fqeJZ4mRgGVhgg96/Ev9s/4KD4J/HHV7KziCaDqjHUdNKfdWN2O+Mf7j7lx6bfWv0+/YYvrjUv2WfA1xdzy3M7wTbpZnLu37+TqTya4T/gof8AAu08ffAu71ywgjh1bwwX1KJhxvhP+vTPuAG+qD1r5bLK/wBQxzpSejfK/v0Z62Kp/WKCmlrufJPxL+I2sah/wTp+GumS3u6OXXJrGZQfmaCAzGJDz0BC/wDfK+lSf8E0/gb/AMLA+K83jPUbfzNH8MANBvXKyXjg7P8Avhct7HZXx1HG00iog3OxCgepNfuX+yl8GLf4G/BbQfD4Rf7RaIXeoSr/AMtLmQAvz3A4UeyivfzSosvwsqUHrUb+57/5HnYSLxNZSltFL+v1PYFG0ACkR1kGVYMM4yDmnVDbWkNnGUgjWNCxYhfU9TX56fSE1NR1kGVYMM4yDmnVDbWkNnGUgjWNCxYhfU9TQBNTUdZBlWDDOMg5p1Q21pDZxlII1jQsWIX1PU0ATU1HWQZVgwzjIOadUNtaQ2cZSCNY0LFiF9T1NAE1NR1kGVYMM4yDmnVDbWkNnGUgjWNCxYhfU9TQBNTUdZBlWDDOMg5p1Q21pDZxlII1jQsWIX1PU0ATU1HWQZVgwzjIOadUNtaQ2cZSCNY0LFiF9T1NAE1NR1kGVYMM4yDmnVDbWkNnGUgjWNCxYhfU9TQBNTUdZBlWDDOMg5p1Q21pDZxlII1jQsWIX1PU0ATU1HWQZVgwzjIOadUNtaQ2cZSCNY0LFiF9T1NAE1NR1kGVYMM4yDmnVDbWkNnGUgjWNCxYhfU9TQBNTUdZBlWDDOMg5p1Q21pDZxlII1jQsWIX1PU0ATU1HWQZVgwzjIOadUNtaQ2cZSCNY0LFiF9T1NAE1NR1kGVYMM4yDmnVDbWkNnGUgjWNCxYhfU9TQBNTUdZBlWDDOMg5p1Q21pDZxlII1jQsWIX1PU0ATU1HWQZVgwzjIOadUNtaQ2cZSCNY0LFiF9T1NAE1NR1kGVYMM4yDmnVDbWkNnGUgjWNCxYhfU9TQBNTUdZBlWDDOMg5p1Q21pDZxlII1jQsWIX1PU0ATU1HWQZVgwzjIOadUNtaQ2cZSCNY0LFiF9T1NAE1NR1kGVYMM4yDmnVDbWkNnGUgjWNCxYhfU9TQBNRRRQAU1HWQZVgwzjIOadUNtaQ2cZSCNY0LFiF9T1NAE1NR1kGVYMM4yDmnVDbWkNnGUgjWNCxYhfU9TQBNTUdZBlWDDOMg5p1Q21pDZxlII1jQsWIX1PU0ATU1HWQZVgwzjIOadUNtaQ2cZSCNY0LFiF9T1NAE1NR1kGVYMM4yDmnVDbWkNnGUgjWNCxYhfU9TQBNTUdZBlWDDOMg5p1Q21pDZxlII1jQsWIX1PU0ATU1HWQZVgwzjIOadUNtaQ2cZSCNY0LFiF9T1NAE1NR1kGVYMM4yDmnVDbWkNnGUgjWNCxYhfU9TQBNTUdZBlWDDOMg5p1Q21pDZxlII1jQsWIX1PU0ATU1HWQZVgwzjIOadUNtaQ2cZSCNY0LFiF9T1NAE1NR1kGVYMM4yDmnVDbWkNnGUgjWNCxYhfU9TQBNTUdZBlWDDOMg5p1Q21pDZxlII1jQsWIX1PU0ATU1HWQZVgwzjIOadUNtaQ2cZSCNY0LFiF9T1NAE1NR1kGVYMM4yDmnVDbWkNnGUgjWNCxYhfU9TQBNTUdZBlWDDOMg5p1Q21pDZxlII1jQsWIX1PU0ATU1HWQZVgwzjIOadUNtaQ2cZSCNY0LFiF9T1NAE1NR1kGVYMM4yDmnVDbWkNnGUgjWNCxYhfU9TQBNTUdZBlWDDOMg5p1Q21pDZxlII1jQsWIX1PU0ATU1HWQZVgwzjIOadUNtaQ2cZSCNY0LFiF9T1NAE1NR1kGVYMM4yDmnVDbWkNnGUgjWNCxYhfU9TQBNTUdZBlWDDOMg5p1Q21pDZxlII1jQsWIX1PU0ATVUuLK21GJldUlRsqw4IPqDVuoba0hs4ykEaxoWLEL6nqaAPPLn9nP4Z3l4bqfwB4XmuSSxmk0W2ZyfXcUzXaaNoGm6NZx22nW1vbWsXypFbIqInsAOBWrUNtaQ2cZSCNY0LFiF9T1NaSnKatJtkqKWyJcVWmtLe+jYMEkU5U9wfUVaqG2tIbOMpBGsaFixC+p6msyjz2//Z1+GmqXhu7vwD4Yurlm3GafRrZ3J9dxTOa63w94U0bw7ZJa6RYWlhZxnCwWUSxxr9FUACtuoba0hs4ykEaxoWLEL6nqa0lUnJWk2yVFJ3SJGQMm3HFU0062kO5cMM9Qc81eqG2tIbOMpBGsaFixC+p6msyiRECKFHQVXltYLz5sh8HGQc1aqG2tIbOMpBGsaFixC+p6mgBtvZx2xJQYzUh2XCEBg69Mg5qSoba0hs4ykEaxoWLEL6nqaAIBpUAbO2nPZwXQBBDgcZBzVuoba0hs4ykEaxoWLEL6nqaAEt7OO2zsGKewjuYyAwdemQc1JUNtaQ2cZSCNY0LFiF9T1NAEK6VArAhasxsjL8jBgOMg5p9Q21pDZxlII1jQsWIX1PU0AMnsIp23MMmltYIY1PlEMOhIOasVDbWkNnGUgjWNCxYhfU9TQBk+JfBWieMLFrLWtKstWs2OWt763SaMn3VgRWN4R+EPgrwTM8/hzwxomiyP8ryaXp8NuW9iUUZrtahtrSGzjKQRrGhYsQvqepq1OSjyp6E8qvewktpHLGEI4FQwWFuDvjw3bIOau1DbWkNnGUgjWNCxYhfU9TUFELaXAzZK81PbrGseIyGUccHNS1DbWkNnGUgjWNCxYhfU9TQBKwDAg9KpDTraUllw3PUHPNXqhtrSGzjKQRrGhYsQvqepoAhbS4GxlaYmmW0gyuGGcZBzV+oba0hs4ykEaxoWLEL6nqaAK/8AZMH92nx2Vu8LIm10bKnHI+lW6htrSGzjKQRrGhYsQvqepoA88/4Zy+Gf2yS6HgDwuLmRt7Tf2Lbb2bOcltmSc966PSPh94b0hMabpGnWajI/0W2jQDnn7orpqhtrSGzjKQRrGhYsQvqeprR1JyXvSbJUYrZHif7VX7SCfsteBdL15fDn/CSC9vxY/Zft32TZmN33bvLkz9zGMDr1r4w+Kf8AwVC/4WX8OfEfhX/hWf8AZ39sWM1l9r/t7zfJ3qV3bPsy7sZ6ZH1r7Q/ax/ZuH7TPgrTNAbXW0AWV8L0Tpai4L4Rk27d64+9nOe1fJjf8Ekp8nb8TiB2B8P8A/wB1V9Jl0srhSUsV8af975baHmYlYtzapfD8v1Pz+0z/AJCVp/11T+Yr+hnSHV9MtijBgI1GQc9q+Avh/wD8EqbTQvF2malr/jh9Y0y0mWaSwt9M+zmfachTIZXwpI5wMkZwR1r9AbGxh0+3EMEaxJkttUYGT1ozvHUMY6aoO9r9H1t39AwFCpRUvaK1yxTUdZBlWDDOMg5p1Q21pDZxlII1jQsWIX1PU18ueqTU1HWQZVgwzjIOadUNtaQ2cZSCNY0LFiF9T1NAE1NR1kGVYMM4yDmnVDbWkNnGUgjWNCxYhfU9TQBNTUdZBlWDDOMg5p1Q21pDZxlII1jQsWIX1PU0ATU1HWQZVgwzjIOadUNtaQ2cZSCNY0LFiF9T1NAE1NR1kGVYMM4yDmnVDbWkNnGUgjWNCxYhfU9TQBNTUdZBlWDDOMg5p1Q21pDZxlII1jQsWIX1PU0ATU1HWQZVgwzjIOadUNtaQ2cZSCNY0LFiF9T1NAE1NR1kGVYMM4yDmnVDbWkNnGUgjWNCxYhfU9TQBNTUdZBlWDDOMg5p1Q21pDZxlII1jQsWIX1PU0ATU1HWQZVgwzjIOadUNtaQ2cZSCNY0LFiF9T1NAE1NR1kGVYMM4yDmnVDbWkNnGUgjWNCxYhfU9TQBNTUdZBlWDDOMg5p1Q21pDZxlII1jQsWIX1PU0ATU1HWQZVgwzjIOadUNtaQ2cZSCNY0LFiF9T1NAE1NR1kGVYMM4yDmnVDbWkNnGUgjWNCxYhfU9TQBNTUdZBlWDDOMg5p1Q21pDZxlII1jQsWIX1PU0ATU1HWQZVgwzjIOadUNtaQ2cZSCNY0LFiF9T1NAE1NR1kGVYMM4yDmnVDbWkNnGUgjWNCxYhfU9TQBNTUdZBlWDDOMg5p1Q21pDZxlII1jQsWIX1PU0ATU1HWQZVgwzjIOadUNtaQ2cZSCNY0LFiF9T1NAE1FFFABTUdZBlWDDOMg5p1Q21pDZxlII1jQsWIX1PU0ATU1HWQZVgwzjIOadUNtaQ2cZSCNY0LFiF9T1NAE1NR1kGVYMM4yDmnVDbWkNnGUgjWNCxYhfU9TQBNTUdZBlWDDOMg5p1Q21pDZxlII1jQsWIX1PU0ATU1HWQZVgwzjIOadUNtaQ2cZSCNY0LFiF9T1NAE1NR1kGVYMM4yDmnVDbWkNnGUgjWNCxYhfU9TQBNTUdZBlWDDOMg5p1Q21pDZxlII1jQsWIX1PU0ATU1HWQZVgwzjIOadUNtaQ2cZSCNY0LFiF9T1NAE1NR1kGVYMM4yDmnVDbWkNnGUgjWNCxYhfU9TQBNTUdZBlWDDOMg5p1Q21pDZxlII1jQsWIX1PU0ATU1HWQZVgwzjIOadUNtaQ2cZSCNY0LFiF9T1NAE1NR1kGVYMM4yDmnVDbWkNnGUgjWNCxYhfU9TQBNTUdZBlWDDOMg5p1Q21pDZxlII1jQsWIX1PU0ATU1HWQZVgwzjIOadUNtaQ2cZSCNY0LFiF9T1NAE1NR1kGVYMM4yDmnVDbWkNnGUgjWNCxYhfU9TQBNTUdZBlWDDOMg5p1Q21pDZxlII1jQsWIX1PU0ATU1HWQZVgwzjIOadUNtaQ2cZSCNY0LFiF9T1NAE1NR1kGVYMM4yDmnVDbWkNnGUgjWNCxYhfU9TQBNTUdZBlWDDOMg5p1Q21pDZxlII1jQsWIX1PU0ATU1HWQZVgwzjIOadUNtaQ2cZSCNY0LFiF9T1NAE1NR1kGVYMM4yDmnVDbWkNnGUgjWNCxYhfU9TQBNTUdZBlWDDOMg5p1Q21pDZxlII1jQsWIX1PU0ATU1HWQZVgwzjIOadUNtaQ2cZSCNY0LFiF9T1NAE1NR1kGVYMM4yDmnVDbWkNnGUgjWNCxYhfU9TQBNTUdZBlWDDOMg5p1Q21pDZxlII1jQsWIX1PU0ATU1HWQZVgwzjIOadUNtaQ2cZSCNY0LFiF9T1NAE1NR1kGVYMM4yDmnVDbWkNnGUgjWNCxYhfU9TQBNTUdZBlWDDOMg5p1Q21pDZxlII1jQsWIX1PU0ATU1HWQZVgwzjIOadUNtaQ2cZSCNY0LFiF9T1NAE1NR1kGVYMM4yDmnVDbWkNnGUgjWNCxYhfU9TQBNTUdZBlWDDOMg5p1Q21pDZxlII1jQsWIX1PU0ATU1HWQZVgwzjIOadUNtaQ2cZSCNY0LFiF9T1NAE1NR1kGVYMM4yDmnVDbWkNnGUgjWNCxYhfU9TQBNTUdZBlWDDOMg5p1Q21pDZxlII1jQsWIX1PU0ATU1HWQZVgwzjIOadUNtaQ2cZSCNY0LFiF9T1NAE1NR1kGVYMM4yDmnVDbWkNnGUgjWNCxYhfU9TQBNTUdZBlWDDOMg5p1Q21pDZxlII1jQsWIX1PU0ATU1HWQZVgwzjIOadUNtaQ2cZSCNY0LFiF9T1NAE1NR1kGVYMM4yDmnVDbWkNnGUgjWNCxYhfU9TQBNTUdJBlWDDOMg5p1Q21pDZxlII1jQsWIX1PU0AS0iOsgyrBhnGQc06oba0hs4ykEaxoWLEL6nqaAJqajrIMqwYZxkHNOqG2tIbOMpBGsaFixC+p6mgCamo6yDKsGGcZBzTqhtrSGzjKQRrGhYsQvqepoAmpqOsgyrBhnGQc06oba0hs4ykEaxoWLEL6nqaAJqajrIMqwYZxkHNOqG2tIbOMpBGsaFixC+p6mgCamo6yDKsGGcZBzTqhtrSGzjKQRrGhYsQvqepoAmpqOsgyrBhnGQc06oba0hs4ykEaxoWLEL6nqaAJqajrIMqwYZxkHNOqG2tIbOMpBGsaFixC+p6mgCamo6yDKsGGcZBzTqhtrSGzjKQRrGhYsQvqepoAmpqOsgyrBhnGQc06oba0hs4ykEaxoWLEL6nqaAJqajrIMqwYZxkHNOqG2tIbOMpBGsaFixC+p6mgCamo6yDKsGGcZBzTqhtrSGzjKQRrGhYsQvqepoAmpqOsgyrBhnGQc06oba0hs4ykEaxoWLEL6nqaAJqajrIMqwYZxkHNOqG2tIbOMpBGsaFixC+p6mgCamo6yDKsGGcZBzTqhtrSGzjKQRrGhYsQvqepoAmpqOsgyrBhnGQc06oba0hs4ykEaxoWLEL6nqaAJqajrIMqwYZxkHNOqG2tIbOMpBGsaFixC+p6mgCamo6yDKsGGcZBzTqhtrSGzjKQRrGhYsQvqepoAmpqOsgyrBhnGQc06oba0hs4ykEaxoWLEL6nqaAJqajrIMqwYZxkHNOqG2tIbOMpBGsaFixC+p6mgCamo6yDKsGGcZBzTqhtrSGzjKQRrGhYsQvqepoAmooooAKajrIMqwYZxkHNOqhosaRWjhFVB5rnCjHOaYi/TUdZBlWDDOMg5p1UNFjSK0cIqoPNc4UY5zQBfpqOsgyrBhnGQc06qGixpFaOEVUHmucKMc5oAv01HWQZVgwzjIOadVDRY0itHCKqDzXOFGOc0AX6ajrIMqwYZxkHNOqhosaRWjhFVB5rnCjHOaAL9NR1kGVYMM4yDmnVQ0WNIrRwiqg81zhRjnNAF+mo6yDKsGGcZBzTqoaLGkVo4RVQea5woxzmgC/TUdZBlWDDOMg5p1UNFjSK0cIqoPNc4UY5zQBfpqOsgyrBhnGQc06qGixpFaOEVUHmucKMc5oAv01HWQZVgwzjIOadVDRY0itHCKqDzXOFGOc0AX6ajrIMqwYZxkHNOqhosaRWjhFVB5rnCjHOaAL9NR1kGVYMM4yDmnVQ0WNIrRwiqg81zhRjnNAF+mo6yDKsGGcZBzTqoaLGkVo4RVQea5woxzmgC/TUdZBlWDDOMg5p1UNFjSK0cIqoPNc4UY5zQBfpqOsgyrBhnGQc06qGixpFaOEVUHmucKMc5oAv01HWQZVgwzjIOadVDRY0itHCKqDzXOFGOc0AX6ajrIMqwYZxkHNOqhosaRWjhFVB5rnCjHOaAL9NR1kGVYMM4yDmnVQ0WNIrRwiqg81zhRjnNAF+mo6yDKsGGcZBzTqoaLGkVo4RVQea5woxzmgC/TUdZBlWDDOMg5p1UNFjSK0cIqoPNc4UY5zQBfpqOsgyrBhnGQc06qGixpFaOEVUHmucKMc5oAv01HWQZVgwzjIOadVDRY0itHCKqDzXOFGOc0AX6ajrIMqwYZxkHNOqhosaRWjhFVB5rnCjHOaAL9NR1kGVYMM4yDmnVQ0WNIrRwiqg81zhRjnNAF+mo6yDKsGGcZBzTqoaLGkVo4RVQea5woxzmgC/TUdZBlWDDOMg5p1UNFjSK0cIqoPNc4UY5zQBfpqOsgyrBhnGQc06qGixpFaOEVUHmucKMc5oAv01HWQZVgwzjIOadVDRY0itHCKqDzXOFGOc0AX6ajrIMqwYZxkHNOqhosaRWjhFVB5rnCjHOaAL9NR1kGVYMM4yDmnVQ0WNIrRwiqg81zhRjnNAF+mo6yDKsGGcZBzTqoaLGkVo4RVQea5woxzmgC/TUdZBlWDDOMg5p1UNFjSK0cIqoPNc4UY5zQBfpqOsgyrBhnGQc06qGixpFaOEVUHmucKMc5oAv01HWQZVgwzjIOadVDRY0itHCKqDzXOFGOc0AX6ajrIMqwYZxkHNOqhosaRWjhFVB5rnCjHOaAL9NR1kGVYMM4yDmnVQ0WNIrRwiqg81zhRjnNAF+mo6yDKsGGcZBzTqoaLGkVo4RVQea5woxzmgC/TUdZBlWDDOMg5p1UNFjSK0cIqoPNc4UY5zQBfpqOsgyrBhnGQc06qGixpFaOEVUHmucKMc5oAv01HWQZVgwzjIOadVDRY0itHCKqDzXOFGOc0AX6ajrIMqwYZxkHNOqhosaRWjhFVB5rnCjHOaAL9NR1kGVYMM4yDmnVQ0WNIrRwiqg81zhRjnNAF+mo6yDKsGGcZBzTqoaLGkVo4RVQea5woxzmgC/TUdZBlWDDOMg5p1UNFjSK0cIqoPNc4UY5zQBfpqOsgyrBhnGQc06qGixpFaOEVUHmucKMc5oAv01HWQZVgwzjIOadVDRY0itHCKqDzXOFGOc0AX6ajrIMqwYZxkHNOqhosaRWjhFVB5rnCjHOaAL9NR1kGVYMM4yDmnVQ0WNIrRwiqg81zhRjnNAF+mo6yDKsGGcZBzTqoaLGkVo4RVQea5woxzmgC/TUdZBlWDDOMg5p1UNFjSK0cIqoPNc4UY5zQBfpqOsgyrBhnGQc06qGixpFaOEVUHmucKMc5oAv01HWQZVgwzjIOadVDRY0itHCKqDzXOFGOc0AX6ajrIMqwYZxkHNOqhosaRWjhFVB5rnCjHOaAL9NR1kGVYMM4yDmnVQ0WNIrRwiqg81zhRjnNAF+mo6yDKsGGcZBzTqoaLGkVo4RVQea5woxzmgC/TUdZBlWDDOMg5p1UNFjSK0cIqoPNc4UY5zQBfpqOsgyrBhnGQc06qGixpFaOEVUHmucKMc5oAv01HWQZVgwzjIOadVDRY0itHCKqDzXOFGOc0AX6ajrIMqwYZxkHNOqhosaRWjhFVB5rnCjHOaAL9NR1kGVYMM4yDmnVQ0WNIrRwiqg81zhRjnNAF+mo6yDKsGGcZBzTqoaLGkVo4RVQea5woxzmgC/RRRSGf/Z;" vertex="1" parent="1">
          <mxGeometry x="407" y="697.74" width="303" height="62.26" as="geometry" />
        </mxCell>
        <mxCell id="GoDRWv_CjvwXQ1oCSgpp-35" value="&lt;span style=&quot;font-size: 20px;&quot;&gt;&lt;b&gt;&lt;i&gt;Introduction To Technology Devops OpenRan and Cloud&lt;/i&gt;&lt;/b&gt;&lt;/span&gt;" style="rounded=1;whiteSpace=wrap;html=1;fillColor=#fff2cc;gradientColor=#ffd966;strokeColor=#d6b656;" vertex="1" parent="1">
          <mxGeometry x="160" y="400" width="490" height="50" as="geometry" />
        </mxCell>
        <mxCell id="GoDRWv_CjvwXQ1oCSgpp-36" value="&lt;span style=&quot;font-size: 20px;&quot;&gt;&lt;b&gt;&lt;i&gt;Open Ran and IT Cloud Introduction&lt;/i&gt;&lt;/b&gt;&lt;/span&gt;" style="rounded=1;whiteSpace=wrap;html=1;fillColor=#d5e8d4;gradientColor=#97d077;strokeColor=#82b366;" vertex="1" parent="1">
          <mxGeometry x="180" y="450" width="490" height="50" as="geometry" />
        </mxCell>
        <mxCell id="GoDRWv_CjvwXQ1oCSgpp-37" value="&lt;span style=&quot;font-size: 20px;&quot;&gt;&lt;b&gt;&lt;i&gt;Open Ran and IT Cloud Introduction&lt;/i&gt;&lt;/b&gt;&lt;/span&gt;" style="rounded=1;whiteSpace=wrap;html=1;fillColor=#f8cecc;gradientColor=#ea6b66;strokeColor=#b85450;" vertex="1" parent="1">
          <mxGeometry x="210" y="500" width="490" height="50" as="geometry" />
        </mxCell>
        <mxCell id="GoDRWv_CjvwXQ1oCSgpp-38" value="&lt;span style=&quot;font-size: 20px;&quot;&gt;&lt;b&gt;&lt;i&gt;Cource Info and Practical Hands On Info&lt;/i&gt;&lt;/b&gt;&lt;/span&gt;" style="rounded=1;whiteSpace=wrap;html=1;fillColor=#cce5ff;strokeColor=#36393d;" vertex="1" parent="1">
          <mxGeometry x="220" y="550" width="490" height="50" as="geometry" />
        </mxCell>
        <mxCell id="GoDRWv_CjvwXQ1oCSgpp-39" value="" style="fontColor=#0066CC;verticalAlign=top;verticalLabelPosition=bottom;labelPosition=center;align=center;html=1;outlineConnect=0;fillColor=#CCCCCC;strokeColor=#6881B3;gradientColor=none;gradientDirection=north;strokeWidth=2;shape=mxgraph.networks.radio_tower;" vertex="1" parent="1">
          <mxGeometry x="100" y="620" width="55" height="100" as="geometry" />
        </mxCell>
        <mxCell id="GoDRWv_CjvwXQ1oCSgpp-41" value="" style="image;aspect=fixed;perimeter=ellipsePerimeter;html=1;align=center;shadow=0;dashed=0;spacingTop=3;image=img/lib/active_directory/windows_server.svg;" vertex="1" parent="1">
          <mxGeometry x="310" y="678.87" width="73.8" height="90" as="geometry" />
        </mxCell>
        <mxCell id="GoDRWv_CjvwXQ1oCSgpp-42" value="" style="image;html=1;image=img/lib/clip_art/networking/Cloud_Server_Private_128x128.png" vertex="1" parent="1">
          <mxGeometry x="180" y="590" width="80" height="80" as="geometry" />
        </mxCell>
        <mxCell id="GoDRWv_CjvwXQ1oCSgpp-43" value="" style="image;sketch=0;aspect=fixed;html=1;points=[];align=center;fontSize=12;image=img/lib/mscae/Docker.svg;" vertex="1" parent="1">
          <mxGeometry x="365" y="609.5" width="50" height="41" as="geometry" />
        </mxCell>
        <mxCell id="GoDRWv_CjvwXQ1oCSgpp-44" value="" style="aspect=fixed;sketch=0;html=1;dashed=0;whitespace=wrap;verticalLabelPosition=bottom;verticalAlign=top;fillColor=#2875E2;strokeColor=#ffffff;points=[[0.005,0.63,0],[0.1,0.2,0],[0.9,0.2,0],[0.5,0,0],[0.995,0.63,0],[0.72,0.99,0],[0.5,1,0],[0.28,0.99,0]];shape=mxgraph.kubernetes.icon2;prIcon=etcd" vertex="1" parent="1">
          <mxGeometry x="280" y="635.87" width="50" height="48" as="geometry" />
        </mxCell>
        <mxCell id="GoDRWv_CjvwXQ1oCSgpp-45" value="" style="image;aspect=fixed;html=1;points=[];align=center;fontSize=12;image=img/lib/azure2/other/Modular_Data_Center.svg;" vertex="1" parent="1">
          <mxGeometry x="180" y="678.87" width="80" height="80" as="geometry" />
        </mxCell>
      </root>
    </mxGraphModel>
  </diagram>
</mxfile>
